<?xml version="1.0" encoding="utf-8"?>
<!-- Generator: Adobe Illustrator 16.0.0, SVG Export Plug-In . SVG Version: 6.00 Build 0)  -->
<!DOCTYPE svg PUBLIC "-//W3C//DTD SVG 1.1//EN" "http://www.w3.org/Graphics/SVG/1.1/DTD/svg11.dtd">
<svg version="1.1" id="Layer_1" xmlns="http://www.w3.org/2000/svg" xmlns:xlink="http://www.w3.org/1999/xlink" x="0px" y="0px"
	 width="250.584px" height="252.816px" viewBox="0 0 250.584 252.816" enable-background="new 0 0 250.584 252.816"
	 xml:space="preserve">
<g>
	<g>
		<g>
			<g>
				<defs>
					<rect id="SVGID_1_" x="0.1" y="86.239" width="83.336" height="83.334"/>
				</defs>
				<clipPath id="SVGID_2_">
					<use xlink:href="#SVGID_1_"  overflow="visible"/>
				</clipPath>
				<g clip-path="url(#SVGID_2_)">
					<circle fill="#FFA538" cx="41.771" cy="169.573" r="41.652"/>
					<circle fill="#FFECCC" cx="41.771" cy="169.573" r="35.865"/>
					<circle fill="#FFA538" cx="41.771" cy="169.573" r="31.043"/>
					<circle fill="#FFECCC" cx="41.771" cy="169.573" r="26.729"/>
					<circle fill="#FFA538" cx="41.771" cy="169.573" r="21.93"/>
					<circle fill="#FFECCC" cx="41.771" cy="169.573" r="18.882"/>
					<circle fill="#FFA538" cx="41.771" cy="169.573" r="14.704"/>
				</g>
			</g>
		</g>
	</g>
	<g>
		<rect y="169.482" fill="#2FB9C6" width="83.336" height="83.334"/>
		<g>
			<g>
				<g>
					<defs>
						<rect id="SVGID_3_" y="169.482" width="83.336" height="83.334"/>
					</defs>
					<clipPath id="SVGID_4_">
						<use xlink:href="#SVGID_3_"  overflow="visible"/>
					</clipPath>
					<g clip-path="url(#SVGID_4_)">
						<circle fill="#0D385C" cx="41.664" cy="169.482" r="41.652"/>
						<circle fill="#FFECCC" cx="41.664" cy="169.482" r="35.865"/>
						<circle fill="#0D385C" cx="41.664" cy="169.482" r="31.043"/>
						<circle fill="#FFECCC" cx="41.665" cy="169.482" r="26.729"/>
						<circle fill="#0D385C" cx="41.664" cy="169.482" r="21.93"/>
						<circle fill="#FFECCC" cx="41.665" cy="169.482" r="18.882"/>
						<circle fill="#0D385C" cx="41.665" cy="169.482" r="14.704"/>
					</g>
				</g>
			</g>
		</g>
	</g>
	<g>
		
			<rect x="6.881" y="216.278" transform="matrix(-0.7071 -0.7071 0.7071 -0.7071 -126.5062 409.508)" fill="#FFECCC" width="29.352" height="29.352"/>
		
			<rect x="48.394" y="216.279" transform="matrix(-0.7071 -0.7071 0.7071 -0.7071 -55.6441 438.8598)" fill="#FFECCC" width="29.353" height="29.351"/>
	</g>
	<g>
		<g>
			<path fill="#2F9DC2" d="M123.569,64.539h19.64c0-10.847-8.792-19.64-19.64-19.64V64.539z"/>
			<path fill="#FFA538" d="M123.569,64.539h-19.64c0-10.847,8.792-19.64,19.64-19.64V64.539z"/>
		</g>
		<g>
			<path fill="#FFECCC" d="M123.569,64.538h-19.64c0,10.848,8.792,19.643,19.64,19.643V64.538z"/>
			<path fill="#85D0C3" d="M123.569,64.538h19.64c0,10.848-8.792,19.643-19.64,19.643V64.538z"/>
		</g>
	</g>
	<g>
		<polygon fill="#FFA538" points="84.313,210.632 156.483,168.964 83.708,168.964 83.708,252.3 156.483,252.3 		"/>
		<polygon fill="#FFECCC" points="156.483,252.3 167.04,252.3 167.04,241.65 113.313,210.632 167.04,179.613 167.04,168.964 
			156.483,168.964 84.313,210.632 		"/>
		<polygon fill="#0D385C" points="167.04,241.65 167.04,222.621 146.274,210.632 167.04,198.643 167.04,179.613 113.313,210.632 		
			"/>
		<polygon fill="#2FB9C6" points="167.04,222.621 167.04,198.643 146.274,210.632 		"/>
	</g>
	<g>
		<polygon fill="#FFECCC" points="249.842,210.63 177.671,252.298 250.446,252.298 250.446,168.962 177.671,168.962 		"/>
		<polygon fill="#FFA538" points="177.671,168.962 167.115,168.962 167.115,179.611 220.842,210.63 167.115,241.648 
			167.115,252.298 177.671,252.298 249.842,210.63 		"/>
		<polygon fill="#85D0C3" points="167.115,179.611 167.115,198.641 187.881,210.63 167.115,222.619 167.115,241.648 220.842,210.63 
					"/>
		<polygon fill="#2FB9C6" points="167.115,198.641 167.115,222.619 187.881,210.63 		"/>
	</g>
	<g>
		<g>
			<path fill="#FFECCC" d="M85.368,92.014c0,0,1.594,33.543,37.166,29.383L85.368,92.014z"/>
			<path fill="#2FB9C6" d="M85.368,92.014c0,0,33.004-6.189,37.164,29.383L85.368,92.014z"/>
		</g>
		<g>
			<path fill="#FFECCC" d="M161.886,92.014c0,0-1.594,33.543-37.166,29.383L161.886,92.014z"/>
			<path fill="#2FB9C6" d="M161.886,92.014c0,0-33.004-6.189-37.164,29.383L161.886,92.014z"/>
		</g>
		<g>
			<g>
				<path fill="#FFECCC" d="M85.368,125.23c0,0,1.594,33.543,37.166,29.383L85.368,125.23z"/>
				<path fill="#2FB9C6" d="M85.368,125.23c0,0,33.004-6.188,37.164,29.383L85.368,125.23z"/>
			</g>
			<g>
				<path fill="#FFECCC" d="M161.886,125.23c0,0-1.594,33.543-37.166,29.383L161.886,125.23z"/>
				<path fill="#2FB9C6" d="M161.886,125.23c0,0-33.004-6.188-37.164,29.383L161.886,125.23z"/>
			</g>
		</g>
		<rect x="122.905" y="85.917" fill="#2F9DC2" width="1.442" height="83.028"/>
	</g>
	<g>
		<g>
			<path fill="#FFECCC" d="M171.138,91.885c0,0,1.594,33.546,37.166,29.386L171.138,91.885z"/>
			<path fill="#0D385C" d="M171.138,91.885c0,0,33.004-6.188,37.164,29.386L171.138,91.885z"/>
		</g>
		<g>
			<path fill="#FFECCC" d="M247.655,91.885c0,0-1.594,33.546-37.166,29.386L247.655,91.885z"/>
			<path fill="#0D385C" d="M247.655,91.885c0,0-33.004-6.188-37.163,29.386L247.655,91.885z"/>
		</g>
		<g>
			<g>
				<path fill="#FFECCC" d="M171.138,125.103c0,0,1.594,33.544,37.166,29.384L171.138,125.103z"/>
				<path fill="#0D385C" d="M171.138,125.103c0,0,33.004-6.188,37.164,29.384L171.138,125.103z"/>
			</g>
			<g>
				<path fill="#FFECCC" d="M247.655,125.103c0,0-1.594,33.544-37.166,29.384L247.655,125.103z"/>
				<path fill="#0D385C" d="M247.655,125.103c0,0-33.004-6.188-37.163,29.384L247.655,125.103z"/>
			</g>
		</g>
		<rect x="208.675" y="85.789" fill="#2F9DC2" width="1.442" height="83.027"/>
	</g>
	<g>
		<g>
			<path fill="#FFA538" d="M211.918,87.896c15.86-1.801,28.187-15.259,28.187-31.603c0-16.342-12.326-29.8-28.187-31.602V87.896z"/>
			<path fill="#2FB9C6" d="M207.666,24.694c-15.858,1.803-28.185,15.26-28.185,31.602c0,16.344,12.326,29.802,28.185,31.603V24.694z
				"/>
		</g>
		<circle fill="#0D385C" cx="209.793" cy="56.296" r="18.928"/>
	</g>
</g>
</svg>
