<?xml version="1.0" encoding="utf-8"?>
<!-- Generator: Adobe Illustrator 16.0.0, SVG Export Plug-In . SVG Version: 6.00 Build 0)  -->
<!DOCTYPE svg PUBLIC "-//W3C//DTD SVG 1.1//EN" "http://www.w3.org/Graphics/SVG/1.1/DTD/svg11.dtd">
<svg version="1.1" id="Layer_1" xmlns="http://www.w3.org/2000/svg" xmlns:xlink="http://www.w3.org/1999/xlink" x="0px" y="0px"
	 width="86px" height="86.667px" viewBox="557.792 106.575 86 86.667" enable-background="new 557.792 106.575 86 86.667"
	 xml:space="preserve">
<rect x="559.436" y="66.24" fill="none" width="83.336" height="83.333"/>
<g>
	<circle fill="#FFA538" cx="601.105" cy="149.574" r="41.652"/>
	<circle fill="#FFECCC" cx="601.105" cy="149.574" r="35.865"/>
	<circle fill="#FFA538" cx="601.105" cy="149.574" r="31.043"/>
	<circle fill="#FFECCC" cx="601.105" cy="149.574" r="26.728"/>
	<circle fill="#FFA538" cx="601.105" cy="149.574" r="21.93"/>
	<circle fill="#FFECCC" cx="601.105" cy="149.575" r="18.882"/>
	<circle fill="#FFA538" cx="601.105" cy="149.575" r="14.704"/>
</g>
<rect x="559.438" y="149.597" fill="none" width="83.336" height="83.334"/>
<circle fill="#0D385C" cx="601.104" cy="149.598" r="41.652"/>
<circle fill="#FFECCC" cx="601.104" cy="149.598" r="35.865"/>
<circle fill="#0D385C" cx="601.104" cy="149.598" r="31.043"/>
<circle fill="#FFECCC" cx="601.104" cy="149.599" r="26.729"/>
<circle fill="#0D385C" cx="601.104" cy="149.597" r="21.93"/>
<circle fill="#FFECCC" cx="601.104" cy="149.598" r="18.882"/>
<circle fill="#0D385C" cx="601.104" cy="149.598" r="14.704"/>
<g>
	<g>
		<g>
			<defs>
				<rect id="SVGID_195_" x="561.666" y="210.816" width="83.336" height="83.334"/>
			</defs>
			<clipPath id="SVGID_2_">
				<use xlink:href="#SVGID_195_"  overflow="visible"/>
			</clipPath>
			<g clip-path="url(#SVGID_2_)">
				<circle fill="#0D385C" cx="603.33" cy="210.816" r="41.652"/>
				<circle fill="#FFECCC" cx="603.33" cy="210.816" r="35.865"/>
				<circle fill="#0D385C" cx="603.33" cy="210.816" r="31.043"/>
				<circle fill="#FFECCC" cx="603.331" cy="210.816" r="26.729"/>
				<circle fill="#0D385C" cx="603.33" cy="210.816" r="21.93"/>
				<circle fill="#FFECCC" cx="603.331" cy="210.816" r="18.882"/>
			</g>
		</g>
	</g>
</g>
</svg>
