<?xml version="1.0" encoding="utf-8"?>
<!-- Generator: Adobe Illustrator 16.0.0, SVG Export Plug-In . SVG Version: 6.00 Build 0)  -->
<!DOCTYPE svg PUBLIC "-//W3C//DTD SVG 1.1//EN" "http://www.w3.org/Graphics/SVG/1.1/DTD/svg11.dtd">
<svg version="1.1" xmlns="http://www.w3.org/2000/svg" xmlns:xlink="http://www.w3.org/1999/xlink" x="0px" y="0px"
	 width="250.584px" height="252.816px" viewBox="0 0 250.584 252.816" enable-background="new 0 0 250.584 252.816"
	 xml:space="preserve">
<pattern  x="7.584" y="-705.5" width="48" height="48" patternUnits="userSpaceOnUse" id="_x36__dpi_20_x25__3" viewBox="2.4 -50.4 48 48" overflow="visible">
	<g>
		<polygon fill="none" points="2.4,-50.4 50.4,-50.4 50.4,-2.4 2.4,-2.4 		"/>
		<g>
			<path fill="#0D385C" d="M26.4,0c1.324,0,2.4-1.074,2.4-2.4c0-1.324-1.076-2.4-2.4-2.4c-1.326,0-2.4,1.076-2.4,2.4
				C24-1.074,25.074,0,26.4,0z"/>
			<path fill="#0D385C" d="M50.4,0c1.324,0,2.4-1.074,2.4-2.4c0-1.324-1.076-2.4-2.4-2.4c-1.326,0-2.4,1.076-2.4,2.4
				C48-1.074,49.074,0,50.4,0z"/>
			<path fill="#0D385C" d="M26.4-24c1.324,0,2.4-1.074,2.4-2.4c0-1.324-1.076-2.4-2.4-2.4c-1.326,0-2.4,1.076-2.4,2.4
				C24-25.074,25.074-24,26.4-24z"/>
			<path fill="#0D385C" d="M50.4-24c1.324,0,2.4-1.074,2.4-2.4c0-1.324-1.076-2.4-2.4-2.4c-1.326,0-2.4,1.076-2.4,2.4
				C48-25.074,49.074-24,50.4-24z"/>
			<path fill="#0D385C" d="M38.4-12c1.324,0,2.4-1.074,2.4-2.4c0-1.324-1.076-2.4-2.4-2.4c-1.326,0-2.4,1.076-2.4,2.4
				C36-13.074,37.074-12,38.4-12z"/>
			<path fill="#0D385C" d="M14.4-12c1.324,0,2.4-1.074,2.4-2.4c0-1.324-1.076-2.4-2.4-2.4c-1.326,0-2.4,1.076-2.4,2.4
				C12-13.074,13.074-12,14.4-12z"/>
			<path fill="#0D385C" d="M38.4-36c1.324,0,2.4-1.074,2.4-2.4c0-1.324-1.076-2.4-2.4-2.4c-1.326,0-2.4,1.076-2.4,2.4
				C36-37.074,37.074-36,38.4-36z"/>
			<path fill="#0D385C" d="M14.4-36c1.324,0,2.4-1.074,2.4-2.4c0-1.324-1.076-2.4-2.4-2.4c-1.326,0-2.4,1.076-2.4,2.4
				C12-37.074,13.074-36,14.4-36z"/>
		</g>
		<g>
			<path fill="#0D385C" d="M2.4,0c1.324,0,2.4-1.074,2.4-2.4c0-1.324-1.076-2.4-2.4-2.4C1.074-4.801,0-3.725,0-2.4
				C0-1.074,1.074,0,2.4,0z"/>
			<path fill="#0D385C" d="M2.4-24c1.324,0,2.4-1.074,2.4-2.4c0-1.324-1.076-2.4-2.4-2.4c-1.326,0-2.4,1.076-2.4,2.4
				C0-25.074,1.074-24,2.4-24z"/>
		</g>
		<g>
			<path fill="#0D385C" d="M26.4-48c1.324,0,2.4-1.074,2.4-2.4c0-1.324-1.076-2.4-2.4-2.4c-1.326,0-2.4,1.076-2.4,2.4
				C24-49.074,25.074-48,26.4-48z"/>
			<path fill="#0D385C" d="M50.4-48c1.324,0,2.4-1.074,2.4-2.4c0-1.324-1.076-2.4-2.4-2.4c-1.326,0-2.4,1.076-2.4,2.4
				C48-49.074,49.074-48,50.4-48z"/>
		</g>
		<g>
			<path fill="#0D385C" d="M2.4-48c1.324,0,2.4-1.074,2.4-2.4c0-1.324-1.076-2.4-2.4-2.4c-1.326,0-2.4,1.076-2.4,2.4
				C0-49.074,1.074-48,2.4-48z"/>
		</g>
	</g>
</pattern>
<pattern  x="7.584" y="-705.5" width="48" height="48" patternUnits="userSpaceOnUse" id="_x36__dpi_20_x25__5" viewBox="2.4 -50.4 48 48" overflow="visible">
	<g>
		<polygon fill="none" points="2.4,-50.4 50.4,-50.4 50.4,-2.4 2.4,-2.4 		"/>
		<g>
			<path fill="#FFA538" d="M26.4,0c1.324,0,2.4-1.074,2.4-2.4c0-1.324-1.076-2.4-2.4-2.4c-1.326,0-2.4,1.076-2.4,2.4
				C24-1.074,25.074,0,26.4,0z"/>
			<path fill="#FFA538" d="M50.4,0c1.324,0,2.4-1.074,2.4-2.4c0-1.324-1.076-2.4-2.4-2.4c-1.326,0-2.4,1.076-2.4,2.4
				C48-1.074,49.074,0,50.4,0z"/>
			<path fill="#FFA538" d="M26.4-24c1.324,0,2.4-1.074,2.4-2.4c0-1.324-1.076-2.4-2.4-2.4c-1.326,0-2.4,1.076-2.4,2.4
				C24-25.074,25.074-24,26.4-24z"/>
			<path fill="#FFA538" d="M50.4-24c1.324,0,2.4-1.074,2.4-2.4c0-1.324-1.076-2.4-2.4-2.4c-1.326,0-2.4,1.076-2.4,2.4
				C48-25.074,49.074-24,50.4-24z"/>
			<path fill="#FFA538" d="M38.4-12c1.324,0,2.4-1.074,2.4-2.4c0-1.324-1.076-2.4-2.4-2.4c-1.326,0-2.4,1.076-2.4,2.4
				C36-13.074,37.074-12,38.4-12z"/>
			<path fill="#FFA538" d="M14.4-12c1.324,0,2.4-1.074,2.4-2.4c0-1.324-1.076-2.4-2.4-2.4c-1.326,0-2.4,1.076-2.4,2.4
				C12-13.074,13.074-12,14.4-12z"/>
			<path fill="#FFA538" d="M38.4-36c1.324,0,2.4-1.074,2.4-2.4c0-1.324-1.076-2.4-2.4-2.4c-1.326,0-2.4,1.076-2.4,2.4
				C36-37.074,37.074-36,38.4-36z"/>
			<path fill="#FFA538" d="M14.4-36c1.324,0,2.4-1.074,2.4-2.4c0-1.324-1.076-2.4-2.4-2.4c-1.326,0-2.4,1.076-2.4,2.4
				C12-37.074,13.074-36,14.4-36z"/>
		</g>
		<g>
			<path fill="#FFA538" d="M2.4,0c1.324,0,2.4-1.074,2.4-2.4c0-1.324-1.076-2.4-2.4-2.4C1.074-4.801,0-3.725,0-2.4
				C0-1.074,1.074,0,2.4,0z"/>
			<path fill="#FFA538" d="M2.4-24c1.324,0,2.4-1.074,2.4-2.4c0-1.324-1.076-2.4-2.4-2.4c-1.326,0-2.4,1.076-2.4,2.4
				C0-25.074,1.074-24,2.4-24z"/>
		</g>
		<g>
			<path fill="#FFA538" d="M26.4-48c1.324,0,2.4-1.074,2.4-2.4c0-1.324-1.076-2.4-2.4-2.4c-1.326,0-2.4,1.076-2.4,2.4
				C24-49.074,25.074-48,26.4-48z"/>
			<path fill="#FFA538" d="M50.4-48c1.324,0,2.4-1.074,2.4-2.4c0-1.324-1.076-2.4-2.4-2.4c-1.326,0-2.4,1.076-2.4,2.4
				C48-49.074,49.074-48,50.4-48z"/>
		</g>
		<g>
			<path fill="#FFA538" d="M2.4-48c1.324,0,2.4-1.074,2.4-2.4c0-1.324-1.076-2.4-2.4-2.4c-1.326,0-2.4,1.076-2.4,2.4
				C0-49.074,1.074-48,2.4-48z"/>
		</g>
	</g>
</pattern>
<g id="BACKGROUND_2">
	<rect x="36.294" y="-600.809" fill="#0D385C" width="83.336" height="83.333"/>
	<rect x="36.294" y="-517.476" fill="#FFA538" width="83.336" height="83.333"/>
	<rect x="36.294" y="-434.144" fill="#2FB9C6" width="83.336" height="83.333"/>
	<rect x="619.632" y="-517.476" fill="#FFA538" width="83.336" height="83.333"/>
	<rect x="702.968" y="-517.476" fill="#0D385C" width="83.336" height="83.333"/>
	<rect x="702.968" y="-350.813" fill="#FFA538" width="83.336" height="83.332"/>
	<polyline fill="#FFECCC" points="119.63,-434.144 119.63,-517.476 36.294,-517.476 	"/>
	<rect x="119.63" y="-517.476" fill="#FFE282" width="83.336" height="83.333"/>
	<rect x="119.63" y="-434.144" fill="#FFECCC" width="83.336" height="83.333"/>
	<g>
		<rect x="119.63" y="-350.811" fill="#FFE282" width="83.336" height="83.332"/>
		<pattern  id="SVGID_1_" xlink:href="#_x36__dpi_20_x25__5" patternTransform="matrix(1 0 0 1 -144 47.6973)">
		</pattern>
		<rect x="119.63" y="-350.811" fill="url(#SVGID_1_)" width="83.336" height="83.332"/>
	</g>
	<rect x="130.959" y="-422.703" fill="#0D385C" width="60.678" height="60.675"/>
	<rect x="142.48" y="-411.182" fill="#2FB9C6" width="37.636" height="37.634"/>
	<rect x="149.163" y="-404.5" fill="#FFECCC" width="24.271" height="24.27"/>
	<rect x="286.302" y="-517.476" fill="#FFE282" width="83.336" height="83.333"/>
	<polyline fill="#2FB9C6" points="119.63,-434.144 119.63,-517.476 202.966,-517.476 	"/>
	<rect x="202.966" y="-600.809" fill="#2FB9C6" width="83.336" height="83.333"/>
	<rect x="536.294" y="-600.811" fill="#0D385C" width="83.338" height="83.333"/>
	<rect x="369.628" y="-600.813" fill="#FFE282" width="83.333" height="83.337"/>
	<rect x="369.628" y="-517.479" fill="#2FB9C6" width="83.333" height="83.337"/>
	<rect x="452.961" y="-517.479" fill="#FFE282" width="83.333" height="83.337"/>
	<pattern  id="SVGID_2_" xlink:href="#_x36__dpi_20_x25__3" patternTransform="matrix(1 0 0 1 -144 48)">
	</pattern>
	<rect x="452.961" y="-517.479" fill="url(#SVGID_2_)" width="83.333" height="83.337"/>
	<rect x="119.63" y="-600.809" fill="#FFE282" width="83.336" height="83.333"/>
	<polyline fill="#2F9DC2" points="36.294,-600.809 36.294,-517.476 119.63,-517.476 	"/>
	<polyline fill="#85D0C3" points="49.188,-587.916 49.188,-530.369 106.737,-530.369 	"/>
	<polyline fill="#FFECCC" points="62.687,-574.417 62.687,-543.868 93.238,-543.868 	"/>
	<g>
		<rect x="119.63" y="-600.809" fill="#FFA538" width="4.48" height="83.333"/>
		<rect x="129.487" y="-600.809" fill="#FFA538" width="4.48" height="83.333"/>
		<rect x="139.344" y="-600.809" fill="#FFA538" width="4.48" height="83.333"/>
		<rect x="149.201" y="-600.809" fill="#FFA538" width="4.48" height="83.333"/>
		<rect x="159.058" y="-600.809" fill="#FFA538" width="4.48" height="83.333"/>
		<rect x="168.915" y="-600.809" fill="#FFA538" width="4.48" height="83.333"/>
		<rect x="178.772" y="-600.809" fill="#FFA538" width="4.48" height="83.333"/>
		<rect x="188.629" y="-600.809" fill="#FFA538" width="4.48" height="83.333"/>
		<rect x="198.486" y="-600.809" fill="#FFA538" width="4.48" height="83.333"/>
	</g>
	<rect x="369.627" y="-434.146" fill="#FFE282" width="83.333" height="83.336"/>
	<g>
		<rect x="369.627" y="-355.291" fill="#2F9DC2" width="83.333" height="4.48"/>
		<rect x="369.627" y="-365.146" fill="#2F9DC2" width="83.333" height="4.48"/>
		<rect x="369.627" y="-375.003" fill="#2F9DC2" width="83.333" height="4.48"/>
		<rect x="369.627" y="-384.861" fill="#2F9DC2" width="83.333" height="4.48"/>
		<rect x="369.627" y="-394.718" fill="#2F9DC2" width="83.333" height="4.48"/>
		<rect x="369.627" y="-404.574" fill="#2F9DC2" width="83.333" height="4.48"/>
		<rect x="369.627" y="-414.431" fill="#2F9DC2" width="83.333" height="4.48"/>
		<rect x="369.627" y="-424.288" fill="#2F9DC2" width="83.333" height="4.48"/>
		<rect x="369.627" y="-434.146" fill="#2F9DC2" width="83.333" height="4.48"/>
	</g>
	<g>
		<rect x="286.302" y="-600.811" fill="#FFECCC" width="83.337" height="83.333"/>
		<g>
			<path fill="#2F9DC2" d="M330.625-519.667c19.814-2.25,35.211-19.062,35.211-39.478c0-20.415-15.396-37.227-35.211-39.477
				V-519.667z"/>
			<path fill="#2FB9C6" d="M325.313-598.622c-19.813,2.251-35.208,19.062-35.208,39.477c0,20.416,15.396,37.227,35.208,39.478
				V-598.622z"/>
		</g>
	</g>
	<g>
		<defs>
			<rect id="SVGID_3_" x="369.628" y="-600.813" width="83.333" height="83.337"/>
		</defs>
		<clipPath id="SVGID_4_">
			<use xlink:href="#SVGID_3_"  overflow="visible"/>
		</clipPath>
		<g clip-path="url(#SVGID_4_)">
			<circle fill="#FFA538" cx="452.961" cy="-559.148" r="41.652"/>
			<circle fill="#FFECCC" cx="452.961" cy="-559.148" r="35.865"/>
			<circle fill="#FFA538" cx="452.961" cy="-559.148" r="31.043"/>
			<circle fill="#FFECCC" cx="452.961" cy="-559.148" r="26.729"/>
			<circle fill="#FFA538" cx="452.961" cy="-559.149" r="21.929"/>
			<circle fill="#FFECCC" cx="452.961" cy="-559.148" r="18.882"/>
			<circle fill="#FFA538" cx="452.961" cy="-559.148" r="14.704"/>
		</g>
	</g>
	<rect x="452.961" y="-600.813" fill="#2FB9C6" width="83.333" height="83.337"/>
	<g>
		<defs>
			<rect id="SVGID_5_" x="452.961" y="-600.813" width="83.333" height="83.337"/>
		</defs>
		<clipPath id="SVGID_6_">
			<use xlink:href="#SVGID_5_"  overflow="visible"/>
		</clipPath>
		<g clip-path="url(#SVGID_6_)">
			<circle fill="#0D385C" cx="452.961" cy="-559.142" r="41.652"/>
			<circle fill="#FFECCC" cx="452.961" cy="-559.142" r="35.865"/>
			<circle fill="#0D385C" cx="452.961" cy="-559.142" r="31.043"/>
			<circle fill="#FFECCC" cx="452.961" cy="-559.142" r="26.729"/>
			<circle fill="#0D385C" cx="452.961" cy="-559.141" r="21.929"/>
			<circle fill="#FFECCC" cx="452.961" cy="-559.142" r="18.882"/>
			<circle fill="#0D385C" cx="452.961" cy="-559.142" r="14.704"/>
		</g>
	</g>
	<g>
		
			<rect x="375.718" y="-594.729" transform="matrix(0.7071 -0.7071 0.7071 0.7071 524.5033 106.1575)" fill="#2FB9C6" width="29.353" height="29.353"/>
		
			<rect x="375.718" y="-553.218" transform="matrix(0.7071 -0.7071 0.7071 0.7071 495.1504 118.3158)" fill="#2FB9C6" width="29.353" height="29.353"/>
	</g>
	<g>
		
			<rect x="500.708" y="-594.729" transform="matrix(0.7071 -0.7071 0.7071 0.7071 561.1118 194.5382)" fill="#FFECCC" width="29.353" height="29.353"/>
		
			<rect x="500.708" y="-553.218" transform="matrix(0.7071 -0.7071 0.7071 0.7071 531.7589 206.6965)" fill="#FFECCC" width="29.353" height="29.353"/>
	</g>
	<rect x="286.305" y="-350.811" fill="#FFE282" width="83.336" height="83.333"/>
	<rect x="286.305" y="-434.144" fill="#2FB9C6" width="83.336" height="83.333"/>
	<g>
		<defs>
			<rect id="SVGID_7_" x="286.305" y="-434.144" width="83.336" height="83.333"/>
		</defs>
		<clipPath id="SVGID_8_">
			<use xlink:href="#SVGID_7_"  overflow="visible"/>
		</clipPath>
		<g clip-path="url(#SVGID_8_)">
			<circle fill="#0D385C" cx="327.977" cy="-350.811" r="41.652"/>
			<circle fill="#FFECCC" cx="327.977" cy="-350.811" r="35.865"/>
			<circle fill="#0D385C" cx="327.977" cy="-350.811" r="31.043"/>
			<circle fill="#FFECCC" cx="327.976" cy="-350.811" r="26.729"/>
			<circle fill="#0D385C" cx="327.977" cy="-350.811" r="21.93"/>
			<circle fill="#FFECCC" cx="327.976" cy="-350.811" r="18.882"/>
			<circle fill="#0D385C" cx="327.976" cy="-350.811" r="14.704"/>
		</g>
	</g>
	<g>
		
			<rect x="292.389" y="-302.921" transform="matrix(-0.7071 -0.7071 0.7071 -0.7071 728.0133 -274.9343)" fill="#2FB9C6" width="29.353" height="29.354"/>
		
			<rect x="333.9" y="-302.921" transform="matrix(-0.7071 -0.7071 0.7071 -0.7071 798.8766 -245.5818)" fill="#2FB9C6" width="29.353" height="29.354"/>
	</g>
	<g>
		
			<rect x="292.388" y="-427.91" transform="matrix(-0.7071 -0.7071 0.7071 -0.7071 816.3928 -488.3058)" fill="#FFECCC" width="29.353" height="29.353"/>
		
			<rect x="333.9" y="-427.91" transform="matrix(-0.7071 -0.7071 0.7071 -0.7071 887.2577 -458.9526)" fill="#FFECCC" width="29.353" height="29.353"/>
	</g>
	<g>
		
			<rect x="291.593" y="-424.729" transform="matrix(-0.7071 -0.7071 0.7071 -0.7071 812.7863 -483.4374)" fill="#FFECCC" width="29.353" height="29.353"/>
		
			<rect x="333.105" y="-424.729" transform="matrix(-0.7071 -0.7071 0.7071 -0.7071 883.6512 -454.0841)" fill="#FFECCC" width="29.353" height="29.353"/>
	</g>
	<g>
		<g>
			<path fill="#FFECCC" d="M539.705-594.717c0,0,1.594,33.543,37.166,29.383L539.705-594.717z"/>
			<path fill="#2FB9C6" d="M539.705-594.717c0,0,33.004-6.188,37.164,29.383L539.705-594.717z"/>
		</g>
		<g>
			<path fill="#FFECCC" d="M616.222-594.717c0,0-1.594,33.543-37.166,29.383L616.222-594.717z"/>
			<path fill="#2FB9C6" d="M616.222-594.717c0,0-33.004-6.188-37.164,29.383L616.222-594.717z"/>
		</g>
		<g>
			<g>
				<path fill="#FFECCC" d="M539.705-561.5c0,0,1.594,33.543,37.166,29.383L539.705-561.5z"/>
				<path fill="#2FB9C6" d="M539.705-561.5c0,0,33.004-6.188,37.164,29.383L539.705-561.5z"/>
			</g>
			<g>
				<path fill="#FFECCC" d="M616.222-561.5c0,0-1.594,33.543-37.166,29.383L616.222-561.5z"/>
				<path fill="#2FB9C6" d="M616.222-561.5c0,0-33.004-6.188-37.164,29.383L616.222-561.5z"/>
			</g>
		</g>
		<rect x="577.242" y="-600.813" fill="#2F9DC2" width="1.442" height="83.028"/>
	</g>
	<rect x="702.967" y="-184.144" fill="#FFE282" width="83.338" height="83.333"/>
	<g>
		<g>
			<path fill="#FFECCC" d="M706.377-178.05c0,0,1.594,33.544,37.166,29.384L706.377-178.05z"/>
			<path fill="#0D385C" d="M706.377-178.05c0,0,33.004-6.188,37.164,29.384L706.377-178.05z"/>
		</g>
		<g>
			<path fill="#FFECCC" d="M782.895-178.05c0,0-1.594,33.544-37.166,29.384L782.895-178.05z"/>
			<path fill="#0D385C" d="M782.895-178.05c0,0-33.004-6.188-37.164,29.384L782.895-178.05z"/>
		</g>
		<g>
			<g>
				<path fill="#FFECCC" d="M706.377-144.832c0,0,1.594,33.544,37.166,29.384L706.377-144.832z"/>
				<path fill="#0D385C" d="M706.377-144.832c0,0,33.004-6.188,37.164,29.384L706.377-144.832z"/>
			</g>
			<g>
				<path fill="#FFECCC" d="M782.895-144.832c0,0-1.594,33.544-37.166,29.384L782.895-144.832z"/>
				<path fill="#0D385C" d="M782.895-144.832c0,0-33.004-6.188-37.164,29.384L782.895-144.832z"/>
			</g>
		</g>
		<rect x="743.915" y="-184.146" fill="#2F9DC2" width="1.442" height="83.027"/>
	</g>
	<g>
		<rect x="619.632" y="-600.811" fill="#FFECCC" width="83.337" height="83.333"/>
		<g>
			<defs>
				<rect id="SVGID_9_" x="619.632" y="-600.811" width="83.337" height="83.333"/>
			</defs>
			<clipPath id="SVGID_10_">
				<use xlink:href="#SVGID_9_"  overflow="visible"/>
			</clipPath>
			<circle clip-path="url(#SVGID_10_)" fill="#FFA538" cx="702.968" cy="-520.957" r="59.997"/>
			<circle clip-path="url(#SVGID_10_)" fill="#0D385C" cx="702.968" cy="-520.957" r="46.498"/>
			<circle clip-path="url(#SVGID_10_)" fill="#85D0C3" cx="619.632" cy="-600.809" r="46.498"/>
		</g>
	</g>
	<g>
		<rect x="702.968" y="-600.811" fill="#85D0C3" width="83.337" height="83.333"/>
		<g>
			<defs>
				<rect id="SVGID_11_" x="702.968" y="-600.811" width="83.337" height="83.333"/>
			</defs>
			<clipPath id="SVGID_12_">
				<use xlink:href="#SVGID_11_"  overflow="visible"/>
			</clipPath>
			<circle clip-path="url(#SVGID_12_)" fill="#FFECCC" cx="702.969" cy="-520.957" r="59.997"/>
			<circle clip-path="url(#SVGID_12_)" fill="#FFA538" cx="702.969" cy="-520.957" r="46.498"/>
			<circle clip-path="url(#SVGID_12_)" fill="#0D385C" cx="786.305" cy="-600.809" r="46.498"/>
		</g>
	</g>
	<g>
		<rect x="452.96" y="-434.144" fill="#FFA538" width="83.337" height="83.333"/>
		<g>
			<defs>
				<rect id="SVGID_13_" x="452.96" y="-434.144" width="83.337" height="83.333"/>
			</defs>
			<clipPath id="SVGID_14_">
				<use xlink:href="#SVGID_13_"  overflow="visible"/>
			</clipPath>
			<circle clip-path="url(#SVGID_14_)" fill="#0D385C" cx="536.296" cy="-354.289" r="59.997"/>
			<circle clip-path="url(#SVGID_14_)" fill="#85D0C3" cx="536.296" cy="-354.289" r="46.498"/>
			<circle clip-path="url(#SVGID_14_)" fill="#FFECCC" cx="452.96" cy="-434.142" r="46.498"/>
		</g>
	</g>
	<g>
		<rect x="536.296" y="-434.144" fill="#FFECCC" width="83.337" height="83.333"/>
		<g>
			<defs>
				<rect id="SVGID_15_" x="536.296" y="-434.144" width="83.337" height="83.333"/>
			</defs>
			<clipPath id="SVGID_16_">
				<use xlink:href="#SVGID_15_"  overflow="visible"/>
			</clipPath>
			<circle clip-path="url(#SVGID_16_)" fill="#FFA538" cx="536.297" cy="-354.289" r="59.997"/>
			<circle clip-path="url(#SVGID_16_)" fill="#0D385C" cx="536.297" cy="-354.289" r="46.498"/>
			<circle clip-path="url(#SVGID_16_)" fill="#85D0C3" cx="619.633" cy="-434.142" r="46.498"/>
		</g>
	</g>
	<g>
		<rect x="202.966" y="-517.476" fill="#FFA538" width="83.336" height="83.333"/>
		<g>
			<path fill="#2F9DC2" d="M224.005-496.642h20.833c0-11.506-9.327-20.833-20.833-20.833V-496.642z"/>
			<path fill="#0D385C" d="M224.005-496.642h-20.833c0-11.506,9.327-20.833,20.833-20.833V-496.642z"/>
		</g>
		<g>
			<path fill="#FFECCC" d="M265.15-454.978h-20.833c0,11.506,9.327,20.833,20.833,20.833V-454.978z"/>
			<path fill="#85D0C3" d="M265.15-454.978h20.833c0,11.506-9.327,20.833-20.833,20.833V-454.978z"/>
		</g>
		<g>
			<path fill="#2F9DC2" d="M265.151-496.642h20.833c0-11.506-9.327-20.833-20.833-20.833V-496.642z"/>
			<path fill="#0D385C" d="M265.151-496.642h-20.833c0-11.506,9.327-20.833,20.833-20.833V-496.642z"/>
		</g>
		<g>
			<path fill="#FFECCC" d="M224.005-454.978h-20.833c0,11.506,9.327,20.833,20.833,20.833V-454.978z"/>
			<path fill="#85D0C3" d="M224.005-454.978h20.833c0,11.506-9.327,20.833-20.833,20.833V-454.978z"/>
		</g>
		<g>
			<path fill="#2F9DC2" d="M224.005-454.977h20.833c0-11.506-9.327-20.833-20.833-20.833V-454.977z"/>
			<path fill="#0D385C" d="M224.005-454.977h-20.833c0-11.506,9.327-20.833,20.833-20.833V-454.977z"/>
		</g>
		<g>
			<path fill="#FFECCC" d="M265.15-496.643h-20.833c0,11.506,9.327,20.833,20.833,20.833V-496.643z"/>
			<path fill="#85D0C3" d="M265.15-496.643h20.833c0,11.506-9.327,20.833-20.833,20.833V-496.643z"/>
		</g>
		<g>
			<path fill="#2F9DC2" d="M265.151-454.977h20.833c0-11.506-9.327-20.833-20.833-20.833V-454.977z"/>
			<path fill="#0D385C" d="M265.151-454.977h-20.833c0-11.506,9.327-20.833,20.833-20.833V-454.977z"/>
		</g>
		<g>
			<path fill="#FFECCC" d="M224.005-496.643h-20.833c0,11.506,9.327,20.833,20.833,20.833V-496.643z"/>
			<path fill="#85D0C3" d="M224.005-496.643h20.833c0,11.506-9.327,20.833-20.833,20.833V-496.643z"/>
		</g>
	</g>
	<g>
		<defs>
			<rect id="SVGID_17_" x="202.966" y="-600.809" width="83.336" height="83.333"/>
		</defs>
		<clipPath id="SVGID_18_">
			<use xlink:href="#SVGID_17_"  overflow="visible"/>
		</clipPath>
		<g clip-path="url(#SVGID_18_)">
			<g>
				<polygon fill="#0D385C" points="244.633,-606.611 230.73,-592.709 258.536,-592.708 				"/>
				<polygon fill="#FFE282" points="197.166,-559.145 211.069,-545.24 211.069,-573.048 				"/>
				<polygon fill="#0D385C" points="244.636,-511.674 258.538,-525.577 230.733,-525.577 				"/>
				<polygon fill="#FFE282" points="292.103,-559.142 278.199,-573.046 278.199,-545.238 				"/>
				<polygon fill="#FFECCC" points="278.199,-545.238 278.199,-573.046 278.199,-592.708 258.536,-592.708 230.73,-592.709 
					211.069,-592.709 211.069,-573.048 211.069,-545.24 211.069,-525.577 230.733,-525.577 258.538,-525.577 278.199,-525.577 				
					"/>
			</g>
			
				<rect x="220.9" y="-582.875" transform="matrix(0.7071 0.7071 -0.7071 0.7071 -323.7266 -336.7638)" fill="#FFA538" width="47.468" height="47.466"/>
			<rect x="224.559" y="-579.218" fill="#85D0C3" width="40.15" height="40.151"/>
		</g>
	</g>
	<g>
		<defs>
			<rect id="SVGID_19_" x="286.302" y="-517.476" width="83.336" height="83.333"/>
		</defs>
		<clipPath id="SVGID_20_">
			<use xlink:href="#SVGID_19_"  overflow="visible"/>
		</clipPath>
		<rect x="330.433" y="-548.724" clip-path="url(#SVGID_20_)" fill="#FFA538" width="83.336" height="83.333"/>
		<rect x="247.087" y="-465.392" clip-path="url(#SVGID_20_)" fill="#FFECCC" width="83.336" height="83.333"/>
	</g>
	<rect x="312.726" y="-491.054" fill="#0D385C" width="30.489" height="30.488"/>
	<g>
		<defs>
			<rect id="SVGID_21_" x="369.628" y="-517.479" width="83.333" height="83.337"/>
		</defs>
		<clipPath id="SVGID_22_">
			<use xlink:href="#SVGID_21_"  overflow="visible"/>
		</clipPath>
		<polygon clip-path="url(#SVGID_22_)" fill="#FFECCC" points="335.371,-431.842 411.186,-517.786 487,-431.842 		"/>
		<polygon clip-path="url(#SVGID_22_)" fill="#0D385C" points="335.371,-393.283 411.186,-479.227 487,-393.283 		"/>
	</g>
	<g>
		<defs>
			<rect id="SVGID_23_" x="536.294" y="-517.476" width="83.338" height="83.333"/>
		</defs>
		<clipPath id="SVGID_24_">
			<use xlink:href="#SVGID_23_"  overflow="visible"/>
		</clipPath>
		<rect x="536.294" y="-517.476" clip-path="url(#SVGID_24_)" fill="#FFECCC" width="83.338" height="83.333"/>
		
			<rect x="521.794" y="-531.976" transform="matrix(0.7071 0.7071 -0.7071 0.7071 -167.1669 -548.0458)" clip-path="url(#SVGID_24_)" fill="#85D0C3" width="112.339" height="112.331"/>
		
			<rect x="530.119" y="-523.652" transform="matrix(0.7071 0.7071 -0.7071 0.7071 -167.1677 -548.0409)" clip-path="url(#SVGID_24_)" fill="#FFECCC" width="95.69" height="95.682"/>
		
			<rect x="536.423" y="-517.348" transform="matrix(0.7071 0.7071 -0.7071 0.7071 -167.1669 -548.0493)" clip-path="url(#SVGID_24_)" fill="#85D0C3" width="83.08" height="83.075"/>
		
			<rect x="542.58" y="-511.192" transform="matrix(0.7071 0.7071 -0.7071 0.7071 -167.168 -548.04)" clip-path="url(#SVGID_24_)" fill="#0D385C" width="70.767" height="70.762"/>
		
			<rect x="548.498" y="-505.274" transform="matrix(0.7071 0.7071 -0.7071 0.7071 -167.1671 -548.0475)" clip-path="url(#SVGID_24_)" fill="#85D0C3" width="58.931" height="58.926"/>
		
			<rect x="553.954" y="-499.818" transform="matrix(0.7071 0.7071 -0.7071 0.7071 -167.1683 -548.038)" clip-path="url(#SVGID_24_)" fill="#FFECCC" width="48.018" height="48.015"/>
		
			<rect x="558.828" y="-494.944" transform="matrix(0.7071 0.7071 -0.7071 0.7071 -167.1676 -548.0432)" clip-path="url(#SVGID_24_)" fill="#85D0C3" width="38.271" height="38.267"/>
		
			<rect x="563.516" y="-490.257" transform="matrix(0.7071 0.7071 -0.7071 0.7071 -167.1689 -548.0341)" clip-path="url(#SVGID_24_)" fill="#0D385C" width="28.893" height="28.891"/>
	</g>
	<g>
		<defs>
			<rect id="SVGID_25_" x="619.632" y="-517.476" width="83.336" height="83.333"/>
		</defs>
		<clipPath id="SVGID_26_">
			<use xlink:href="#SVGID_25_"  overflow="visible"/>
		</clipPath>
		<circle clip-path="url(#SVGID_26_)" fill="#FFECCC" cx="702.969" cy="-428.554" r="62.501"/>
	</g>
	<g>
		<path fill="#0D385C" d="M694.765-442.987c0,0-66.236,5.356-67.068-65.513L694.765-442.987z"/>
		<path fill="#2FB9C6" d="M694.765-442.987c0,0,3.799-66.34-67.068-65.509L694.765-442.987z"/>
	</g>
	<g>
		<rect x="202.966" y="-434.144" fill="#0D385C" width="83.336" height="83.333"/>
		<g>
			<defs>
				<rect id="SVGID_27_" x="202.966" y="-434.144" width="83.336" height="83.333"/>
			</defs>
			<clipPath id="SVGID_28_">
				<use xlink:href="#SVGID_27_"  overflow="visible"/>
			</clipPath>
			<circle clip-path="url(#SVGID_28_)" fill="#FFE282" cx="286.304" cy="-345.221" r="62.501"/>
		</g>
		<g>
			<path fill="#FFECCC" d="M278.099-359.654c0,0-66.236,5.355-67.068-65.513L278.099-359.654z"/>
			<path fill="#FFA538" d="M278.099-359.654c0,0,3.799-66.34-67.068-65.509L278.099-359.654z"/>
		</g>
	</g>
	<circle fill="#FFE282" cx="744.634" cy="-475.81" r="41.667"/>
	<pattern  id="SVGID_29_" xlink:href="#_x36__dpi_20_x25__3" patternTransform="matrix(1 0 0 1 -144 48)">
	</pattern>
	<circle fill="url(#SVGID_29_)" cx="744.634" cy="-475.81" r="41.667"/>
	<g>
		<path fill="#85D0C3" d="M786.301-475.81L786.301-475.81c0-23.013-18.655-41.667-41.667-41.667
			c-23.011,0-41.666,18.654-41.666,41.666v0.001H786.301z"/>
	</g>
	<g>
		<defs>
			<rect id="SVGID_30_" x="36.294" y="-434.144" width="83.336" height="83.333"/>
		</defs>
		<clipPath id="SVGID_31_">
			<use xlink:href="#SVGID_30_"  overflow="visible"/>
		</clipPath>
		<g clip-path="url(#SVGID_31_)">
			<polygon fill="#0D385C" points="27.57,-323.232 77.962,-392.477 128.354,-323.232 			"/>
			<polygon fill="#0D385C" points="128.354,-461.723 77.962,-392.477 27.57,-461.723 			"/>
		</g>
	</g>
	
		<rect x="64.737" y="-405.704" transform="matrix(0.7071 0.7071 -0.7071 0.7071 -254.6894 -170.082)" fill="#FFE282" width="26.452" height="26.451"/>
	<g>
		<polygon fill="#FFA538" points="77.962,-350.205 119.63,-278.034 119.63,-350.811 36.294,-350.811 36.294,-278.034 		"/>
		<polygon fill="#FFECCC" points="36.294,-278.034 36.294,-267.479 46.943,-267.479 77.962,-321.205 108.981,-267.479 
			119.63,-267.479 119.63,-278.034 77.962,-350.205 		"/>
		<polygon fill="#0D385C" points="46.943,-267.479 65.973,-267.479 77.962,-288.244 89.952,-267.479 108.981,-267.479 
			77.962,-321.205 		"/>
		<polygon fill="#2FB9C6" points="65.973,-267.479 89.952,-267.479 77.962,-288.244 		"/>
	</g>
	<g>
		<polygon fill="#2FB9C6" points="77.962,-184.752 36.294,-256.923 36.294,-184.146 119.63,-184.146 119.63,-256.923 		"/>
		<polygon fill="#FFECCC" points="119.63,-256.923 119.63,-267.479 108.981,-267.479 77.962,-213.752 46.943,-267.479 
			36.294,-267.479 36.294,-256.923 77.962,-184.752 		"/>
		<polygon fill="#0D385C" points="108.981,-267.479 89.952,-267.479 77.962,-246.713 65.973,-267.479 46.943,-267.479 
			77.962,-213.752 		"/>
		<polygon fill="#2FB9C6" points="89.952,-267.479 65.973,-267.479 77.962,-246.713 		"/>
	</g>
	<g>
		<rect x="202.966" y="-350.809" fill="#FFA538" width="83.338" height="83.332"/>
		<g>
			<path fill="#FFECCC" d="M206.376-344.715c0,0,1.594,33.543,37.166,29.383L206.376-344.715z"/>
			<path fill="#0D385C" d="M206.376-344.715c0,0,33.004-6.188,37.164,29.383L206.376-344.715z"/>
		</g>
		<g>
			<path fill="#FFECCC" d="M282.894-344.715c0,0-1.594,33.543-37.166,29.383L282.894-344.715z"/>
			<path fill="#0D385C" d="M282.894-344.715c0,0-33.004-6.188-37.164,29.383L282.894-344.715z"/>
		</g>
		<g>
			<g>
				<path fill="#FFECCC" d="M206.376-311.498c0,0,1.594,33.544,37.166,29.384L206.376-311.498z"/>
				<path fill="#0D385C" d="M206.376-311.498c0,0,33.004-6.188,37.164,29.384L206.376-311.498z"/>
			</g>
			<g>
				<path fill="#FFECCC" d="M282.894-311.498c0,0-1.594,33.544-37.166,29.384L282.894-311.498z"/>
				<path fill="#0D385C" d="M282.894-311.498c0,0-33.004-6.188-37.164,29.384L282.894-311.498z"/>
			</g>
		</g>
		<rect x="243.914" y="-350.811" fill="#0D385C" width="1.442" height="83.027"/>
	</g>
	<rect x="619.565" y="-434.147" fill="#0D385C" width="83.332" height="83.336"/>
	<polyline fill="#2F9DC2" points="702.897,-434.147 619.565,-434.147 619.565,-350.812 	"/>
	<polyline fill="#85D0C3" points="690.004,-421.254 632.458,-421.254 632.458,-363.705 	"/>
	<polyline fill="#FFECCC" points="676.506,-407.755 645.957,-407.755 645.957,-377.204 	"/>
	<rect x="369.625" y="-350.666" fill="#2FB9C6" width="83.336" height="83.332"/>
	<polyline fill="#FFA538" points="452.96,-267.334 452.96,-350.666 369.625,-350.666 	"/>
	<rect x="452.96" y="-350.666" fill="#FFECCC" width="83.336" height="83.332"/>
	<rect x="536.297" y="-350.666" fill="#FFA538" width="83.336" height="83.332"/>
	<polyline fill="#FFE282" points="452.96,-267.334 452.96,-350.666 536.296,-350.666 	"/>
	<g>
		<defs>
			<rect id="SVGID_32_" x="536.299" y="-350.669" width="83.333" height="83.337"/>
		</defs>
		<clipPath id="SVGID_33_">
			<use xlink:href="#SVGID_32_"  overflow="visible"/>
		</clipPath>
		<polygon clip-path="url(#SVGID_33_)" fill="#85D0C3" points="502.042,-265.032 577.857,-350.977 653.671,-265.032 		"/>
		<polygon clip-path="url(#SVGID_33_)" fill="#0D385C" points="502.042,-226.474 577.857,-312.417 653.671,-226.474 		"/>
	</g>
	<rect x="702.966" y="-434.146" fill="#FFECCC" width="83.337" height="83.333"/>
	<g>
		<g>
			<path fill="#FFA538" d="M747.29-353.002c19.814-2.25,35.211-19.063,35.211-39.478s-15.396-37.227-35.211-39.477V-353.002z"/>
			<path fill="#2FB9C6" d="M741.977-431.957c-19.813,2.251-35.209,19.062-35.209,39.477s15.396,37.228,35.209,39.478V-431.957z"/>
		</g>
		<circle fill="#0D385C" cx="744.635" cy="-392.479" r="23.646"/>
	</g>
	<g>
		<rect x="619.563" y="-350.667" fill="#FFE282" width="83.336" height="83.333"/>
		<g>
			<defs>
				<rect id="SVGID_34_" x="619.563" y="-350.667" width="83.336" height="83.333"/>
			</defs>
			<clipPath id="SVGID_35_">
				<use xlink:href="#SVGID_34_"  overflow="visible"/>
			</clipPath>
			<circle clip-path="url(#SVGID_35_)" fill="#0D385C" cx="702.9" cy="-261.744" r="62.501"/>
			<circle clip-path="url(#SVGID_35_)" fill="#2FB9C6" cx="627.627" cy="-368.833" r="62.501"/>
		</g>
	</g>
	<g>
		<path fill="#FFECCC" d="M778.152-276.287c0,0-66.236,5.355-67.068-65.514L778.152-276.287z"/>
		<path fill="#FFE282" d="M778.152-276.287c0,0,3.799-66.341-67.068-65.51L778.152-276.287z"/>
	</g>
	<rect x="119.63" y="-267.479" fill="#FFA538" width="83.336" height="83.333"/>
	<rect x="202.955" y="-267.479" fill="#2FB9C6" width="83.336" height="83.333"/>
	<circle fill="#FFE282" cx="161.296" cy="-225.812" r="41.667"/>
	<pattern  id="SVGID_36_" xlink:href="#_x36__dpi_20_x25__3" patternTransform="matrix(1 0 0 1 -199.3379 105.998)">
	</pattern>
	<circle fill="url(#SVGID_36_)" cx="161.296" cy="-225.812" r="41.667"/>
	<g>
		<path fill="#85D0C3" d="M202.963-225.812L202.963-225.812c0-23.013-18.655-41.667-41.667-41.667
			c-23.011,0-41.666,18.654-41.666,41.666v0.001H202.963z"/>
	</g>
	<g>
		<defs>
			<rect id="SVGID_37_" x="202.974" y="-267.477" width="83.336" height="83.332"/>
		</defs>
		<clipPath id="SVGID_38_">
			<use xlink:href="#SVGID_37_"  overflow="visible"/>
		</clipPath>
		<rect x="247.105" y="-298.725" clip-path="url(#SVGID_38_)" fill="#FFE282" width="83.337" height="83.332"/>
		<rect x="163.759" y="-215.393" clip-path="url(#SVGID_38_)" fill="#FFECCC" width="83.336" height="83.333"/>
	</g>
	<rect x="229.398" y="-241.056" fill="#0D385C" width="30.489" height="30.488"/>
	<rect x="286.291" y="-267.481" fill="#0D385C" width="83.333" height="83.336"/>
	<g>
		<defs>
			<rect id="SVGID_39_" x="286.327" y="-267.481" width="83.333" height="83.336"/>
		</defs>
		<clipPath id="SVGID_40_">
			<use xlink:href="#SVGID_39_"  overflow="visible"/>
		</clipPath>
		<g clip-path="url(#SVGID_40_)">
			<polygon fill="#FFA538" points="258.748,-276.205 327.993,-225.813 258.748,-175.422 			"/>
			<polygon fill="#FFA538" points="397.238,-175.422 327.993,-225.813 397.238,-276.205 			"/>
		</g>
	</g>
	
		<rect x="314.427" y="-239.039" transform="matrix(-0.7071 0.7071 -0.7071 -0.7071 399.6539 -617.1752)" fill="#2FB9C6" width="26.452" height="26.451"/>
	<g>
		<defs>
			<rect id="SVGID_41_" x="369.624" y="-267.479" width="83.338" height="83.333"/>
		</defs>
		<clipPath id="SVGID_42_">
			<use xlink:href="#SVGID_41_"  overflow="visible"/>
		</clipPath>
		<rect x="369.624" y="-267.479" clip-path="url(#SVGID_42_)" fill="#0D385C" width="83.338" height="83.333"/>
		
			<rect x="355.123" y="-281.979" transform="matrix(0.7071 0.7071 -0.7071 0.7071 -39.2091 -356.9668)" clip-path="url(#SVGID_42_)" fill="#FFECCC" width="112.339" height="112.331"/>
		
			<rect x="363.447" y="-273.655" transform="matrix(0.7071 0.7071 -0.7071 0.7071 -39.2095 -356.9669)" clip-path="url(#SVGID_42_)" fill="#0D385C" width="95.69" height="95.683"/>
		
			<rect x="369.752" y="-267.351" transform="matrix(0.7071 0.7071 -0.7071 0.7071 -39.2085 -356.9703)" clip-path="url(#SVGID_42_)" fill="#FFECCC" width="83.08" height="83.075"/>
		
			<rect x="375.909" y="-261.195" transform="matrix(0.7071 0.7071 -0.7071 0.7071 -39.2111 -356.9627)" clip-path="url(#SVGID_42_)" fill="#85D0C3" width="70.767" height="70.762"/>
		
			<rect x="381.827" y="-255.276" transform="matrix(0.7071 0.7071 -0.7071 0.7071 -39.2081 -356.9719)" clip-path="url(#SVGID_42_)" fill="#FFECCC" width="58.931" height="58.926"/>
		
			<rect x="387.283" y="-249.822" transform="matrix(0.7071 0.7071 -0.7071 0.7071 -39.2122 -356.9604)" clip-path="url(#SVGID_42_)" fill="#0D385C" width="48.018" height="48.014"/>
		
			<rect x="392.157" y="-244.947" transform="matrix(0.7071 0.7071 -0.7071 0.7071 -39.21 -356.9667)" clip-path="url(#SVGID_42_)" fill="#FFECCC" width="38.271" height="38.267"/>
		
			<rect x="396.845" y="-240.259" transform="matrix(0.7071 0.7071 -0.7071 0.7071 -39.2136 -356.9558)" clip-path="url(#SVGID_42_)" fill="#85D0C3" width="28.893" height="28.89"/>
	</g>
	<rect x="452.963" y="-267.481" fill="#FFE282" width="83.333" height="83.338"/>
	<g>
		<defs>
			<rect id="SVGID_43_" x="452.963" y="-267.481" width="83.333" height="83.338"/>
		</defs>
		<clipPath id="SVGID_44_">
			<use xlink:href="#SVGID_43_"  overflow="visible"/>
		</clipPath>
		<g clip-path="url(#SVGID_44_)">
			<circle fill="#0D385C" cx="536.296" cy="-225.815" r="41.652"/>
			<circle fill="#FFA538" cx="536.296" cy="-225.815" r="35.865"/>
			<circle fill="#0D385C" cx="536.296" cy="-225.815" r="31.043"/>
			<circle fill="#FFA538" cx="536.296" cy="-225.816" r="26.729"/>
			<circle fill="#0D385C" cx="536.296" cy="-225.816" r="21.929"/>
			<circle fill="#FFA538" cx="536.296" cy="-225.816" r="18.882"/>
			<circle fill="#0D385C" cx="536.296" cy="-225.816" r="14.704"/>
		</g>
	</g>
	<rect x="536.296" y="-267.481" fill="#FFE282" width="83.333" height="83.338"/>
	<g>
		<defs>
			<rect id="SVGID_45_" x="536.296" y="-267.481" width="83.333" height="83.338"/>
		</defs>
		<clipPath id="SVGID_46_">
			<use xlink:href="#SVGID_45_"  overflow="visible"/>
		</clipPath>
		<g clip-path="url(#SVGID_46_)">
			<circle fill="#FFECCC" cx="536.296" cy="-225.81" r="41.652"/>
			<circle fill="#FFA538" cx="536.296" cy="-225.81" r="35.865"/>
			<circle fill="#FFECCC" cx="536.296" cy="-225.81" r="31.043"/>
			<circle fill="#FFA538" cx="536.296" cy="-225.809" r="26.729"/>
			<circle fill="#FFECCC" cx="536.296" cy="-225.809" r="21.929"/>
			<circle fill="#FFA538" cx="536.296" cy="-225.809" r="18.882"/>
			<circle fill="#FFECCC" cx="536.296" cy="-225.809" r="14.704"/>
		</g>
	</g>
	<rect x="452.961" y="-267.479" fill="#FFA538" width="29.458" height="83.333"/>
	<rect x="590.105" y="-267.479" fill="#FFECCC" width="29.458" height="83.333"/>
	<g>
		<rect x="619.563" y="-267.479" fill="#FFA538" width="83.336" height="83.332"/>
		<polyline fill="#2F9DC2" points="702.899,-267.479 702.899,-184.146 619.563,-184.146 		"/>
		<polyline fill="#85D0C3" points="690.005,-254.586 690.005,-197.039 632.457,-197.039 		"/>
		<polyline fill="#0D385C" points="676.506,-241.088 676.506,-210.537 645.956,-210.537 		"/>
		<rect x="702.968" y="-267.479" fill="#FFECCC" width="83.336" height="83.332"/>
		<polyline fill="#2F9DC2" points="702.968,-267.479 702.968,-184.146 786.304,-184.146 		"/>
		<polyline fill="#85D0C3" points="715.862,-254.586 715.862,-197.039 773.411,-197.039 		"/>
		<polyline fill="#0D385C" points="729.361,-241.088 729.361,-210.537 759.912,-210.537 		"/>
	</g>
	<rect x="36.294" y="-184.146" fill="#85D0C3" width="83.336" height="83.332"/>
	<g>
		<defs>
			<rect id="SVGID_47_" x="36.294" y="-184.146" width="83.336" height="83.332"/>
		</defs>
		<clipPath id="SVGID_48_">
			<use xlink:href="#SVGID_47_"  overflow="visible"/>
		</clipPath>
		<g clip-path="url(#SVGID_48_)">
			<g>
				<polygon fill="#2FB9C6" points="77.961,-189.949 64.059,-176.047 91.864,-176.046 				"/>
				<polygon fill="#FFECCC" points="30.494,-142.482 44.397,-128.578 44.397,-156.387 				"/>
				<polygon fill="#2FB9C6" points="77.964,-95.012 91.866,-108.914 64.061,-108.914 				"/>
				<polygon fill="#FFECCC" points="125.431,-142.48 111.527,-156.384 111.527,-128.576 				"/>
				<polygon fill="#FFA538" points="111.527,-128.576 111.527,-156.384 111.527,-176.046 91.864,-176.046 64.059,-176.047 
					44.397,-176.047 44.397,-156.387 44.397,-128.578 44.397,-108.914 64.061,-108.914 91.866,-108.914 111.527,-108.914 				"/>
			</g>
			
				<rect x="54.228" y="-166.213" transform="matrix(0.7071 0.7071 -0.7071 0.7071 -77.9153 -96.8635)" fill="#0D385C" width="47.469" height="47.466"/>
			<rect x="57.887" y="-162.556" fill="#FFE282" width="40.15" height="40.151"/>
			
				<rect x="65.974" y="-154.468" transform="matrix(-0.7071 0.7071 -0.7071 -0.7071 32.3431 -298.3576)" fill="#85D0C3" width="23.976" height="23.975"/>
		</g>
	</g>
	<g>
		<rect x="119.63" y="-184.146" fill="#0D385C" width="83.336" height="83.333"/>
		<g>
			<path fill="#2F9DC2" d="M140.669-163.312h20.833c0-11.506-9.327-20.833-20.833-20.833V-163.312z"/>
			<path fill="#FFA538" d="M140.669-163.312h-20.833c0-11.506,9.327-20.833,20.833-20.833V-163.312z"/>
		</g>
		<g>
			<path fill="#FFECCC" d="M181.814-121.648h-20.833c0,11.507,9.327,20.834,20.833,20.834V-121.648z"/>
			<path fill="#85D0C3" d="M181.814-121.648h20.833c0,11.507-9.327,20.834-20.833,20.834V-121.648z"/>
		</g>
		<g>
			<path fill="#2F9DC2" d="M181.814-163.312h20.833c0-11.506-9.327-20.833-20.833-20.833V-163.312z"/>
			<path fill="#FFA538" d="M181.814-163.312h-20.833c0-11.506,9.327-20.833,20.833-20.833V-163.312z"/>
		</g>
		<g>
			<path fill="#FFECCC" d="M140.668-121.648h-20.833c0,11.507,9.327,20.834,20.833,20.834V-121.648z"/>
			<path fill="#85D0C3" d="M140.668-121.648h20.833c0,11.507-9.327,20.834-20.833,20.834V-121.648z"/>
		</g>
		<g>
			<path fill="#2F9DC2" d="M140.669-121.646h20.833c0-11.506-9.327-20.833-20.833-20.833V-121.646z"/>
			<path fill="#FFA538" d="M140.669-121.646h-20.833c0-11.506,9.327-20.833,20.833-20.833V-121.646z"/>
		</g>
		<g>
			<path fill="#FFECCC" d="M181.814-163.313h-20.833c0,11.506,9.327,20.833,20.833,20.833V-163.313z"/>
			<path fill="#85D0C3" d="M181.814-163.313h20.833c0,11.506-9.327,20.833-20.833,20.833V-163.313z"/>
		</g>
		<g>
			<path fill="#2F9DC2" d="M181.814-121.646h20.833c0-11.506-9.327-20.833-20.833-20.833V-121.646z"/>
			<path fill="#FFA538" d="M181.814-121.646h-20.833c0-11.506,9.327-20.833,20.833-20.833V-121.646z"/>
		</g>
		<g>
			<path fill="#FFECCC" d="M140.668-163.313h-20.833c0,11.506,9.327,20.833,20.833,20.833V-163.313z"/>
			<path fill="#85D0C3" d="M140.668-163.313h20.833c0,11.506-9.327,20.833-20.833,20.833V-163.313z"/>
		</g>
	</g>
	<rect x="202.974" y="-184.146" fill="#FFE282" width="83.336" height="83.332"/>
	<g>
		<defs>
			<rect id="SVGID_49_" x="202.974" y="-184.146" width="83.336" height="83.332"/>
		</defs>
		<clipPath id="SVGID_50_">
			<use xlink:href="#SVGID_49_"  overflow="visible"/>
		</clipPath>
		<g clip-path="url(#SVGID_50_)">
			
				<rect x="203.193" y="-247.648" transform="matrix(0.7071 0.7071 -0.7071 0.7071 -65.5886 -197.9979)" fill="#FFA538" width="6.073" height="138.94"/>
			
				<rect x="212.64" y="-238.2" transform="matrix(0.7071 0.7071 -0.7071 0.7071 -56.1403 -201.9262)" fill="#FFA538" width="6.073" height="138.94"/>
			
				<rect x="222.086" y="-228.755" transform="matrix(0.7071 0.7071 -0.7071 0.7071 -46.6944 -205.8391)" fill="#FFA538" width="6.073" height="138.94"/>
			
				<rect x="231.533" y="-219.308" transform="matrix(0.7071 0.7071 -0.7071 0.7071 -37.2476 -209.7522)" fill="#FFA538" width="6.073" height="138.94"/>
			
				<rect x="240.98" y="-209.859" transform="matrix(0.7071 0.7071 -0.7071 0.7071 -27.7956 -213.6802)" fill="#FFA538" width="6.074" height="138.939"/>
			
				<rect x="250.427" y="-200.413" transform="matrix(0.7072 0.707 -0.707 0.7072 -18.3636 -217.5468)" fill="#FFA538" width="6.072" height="138.939"/>
			
				<rect x="259.873" y="-190.967" transform="matrix(0.7071 0.7071 -0.7071 0.7071 -8.907 -221.4909)" fill="#FFA538" width="6.073" height="138.94"/>
			
				<rect x="269.32" y="-181.52" transform="matrix(0.707 0.7072 -0.7072 0.707 0.5526 -225.4346)" fill="#FFA538" width="6.073" height="138.939"/>
			
				<rect x="278.767" y="-172.074" transform="matrix(0.7071 0.7071 -0.7071 0.7071 9.979 -229.3014)" fill="#FFA538" width="6.072" height="138.94"/>
		</g>
	</g>
	<g>
		<rect x="286.327" y="-184.145" fill="#85D0C3" width="83.337" height="83.332"/>
		<g>
			<defs>
				<rect id="SVGID_51_" x="286.327" y="-184.145" width="83.337" height="83.332"/>
			</defs>
			<clipPath id="SVGID_52_">
				<use xlink:href="#SVGID_51_"  overflow="visible"/>
			</clipPath>
			<circle clip-path="url(#SVGID_52_)" fill="#FFECCC" cx="369.663" cy="-104.291" r="59.997"/>
			<circle clip-path="url(#SVGID_52_)" fill="#FFA538" cx="369.663" cy="-104.291" r="46.498"/>
			<circle clip-path="url(#SVGID_52_)" fill="#0D385C" cx="286.327" cy="-184.143" r="46.498"/>
		</g>
	</g>
	<g>
		<rect x="369.663" y="-184.145" fill="#0D385C" width="83.337" height="83.332"/>
		<g>
			<defs>
				<rect id="SVGID_53_" x="369.663" y="-184.145" width="83.337" height="83.332"/>
			</defs>
			<clipPath id="SVGID_54_">
				<use xlink:href="#SVGID_53_"  overflow="visible"/>
			</clipPath>
			<circle clip-path="url(#SVGID_54_)" fill="#85D0C3" cx="369.664" cy="-104.291" r="59.997"/>
			<circle clip-path="url(#SVGID_54_)" fill="#FFE282" cx="369.664" cy="-104.291" r="46.498"/>
			<circle clip-path="url(#SVGID_54_)" fill="#FFA538" cx="453" cy="-184.143" r="46.498"/>
		</g>
	</g>
	<rect x="452.964" y="-184.146" fill="#0D385C" width="83.332" height="83.336"/>
	<polyline fill="#2F9DC2" points="536.296,-184.146 452.964,-184.146 452.964,-100.811 	"/>
	<polyline fill="#85D0C3" points="523.404,-171.253 465.857,-171.253 465.857,-113.704 	"/>
	<polyline fill="#FFA538" points="509.906,-157.754 479.356,-157.754 479.356,-127.203 	"/>
	<g>
		<polygon fill="#FFA538" points="536.834,-142.478 609.005,-184.146 536.229,-184.146 536.229,-100.81 609.005,-100.81 		"/>
		<polygon fill="#FFECCC" points="609.005,-100.81 619.561,-100.81 619.561,-111.459 565.834,-142.478 619.561,-173.496 
			619.561,-184.146 609.005,-184.146 536.834,-142.478 		"/>
		<polygon fill="#0D385C" points="619.561,-111.459 619.561,-130.488 598.795,-142.478 619.561,-154.467 619.561,-173.496 
			565.834,-142.478 		"/>
		<polygon fill="#2FB9C6" points="619.561,-130.488 619.561,-154.467 598.795,-142.478 		"/>
	</g>
	<g>
		<polygon fill="#FFECCC" points="702.363,-142.479 630.192,-100.812 702.968,-100.812 702.968,-184.147 630.192,-184.147 		"/>
		<polygon fill="#FFA538" points="630.192,-184.147 619.636,-184.147 619.636,-173.498 673.363,-142.479 619.636,-111.461 
			619.636,-100.812 630.192,-100.812 702.363,-142.479 		"/>
		<polygon fill="#85D0C3" points="619.636,-173.498 619.636,-154.469 640.402,-142.479 619.636,-130.49 619.636,-111.461 
			673.363,-142.479 		"/>
		<polygon fill="#2FB9C6" points="619.636,-154.469 619.636,-130.49 640.402,-142.479 		"/>
	</g>
	<g>
		<g>
			<defs>
				<rect id="SVGID_55_" x="0.1" y="86.239" width="83.336" height="83.334"/>
			</defs>
			<clipPath id="SVGID_56_">
				<use xlink:href="#SVGID_55_"  overflow="visible"/>
			</clipPath>
			<g clip-path="url(#SVGID_56_)">
				<circle fill="#FFA538" cx="41.771" cy="169.573" r="41.652"/>
				<circle fill="#FFECCC" cx="41.771" cy="169.573" r="35.865"/>
				<circle fill="#FFA538" cx="41.771" cy="169.573" r="31.043"/>
				<circle fill="#FFECCC" cx="41.771" cy="169.573" r="26.729"/>
				<circle fill="#FFA538" cx="41.771" cy="169.573" r="21.93"/>
				<circle fill="#FFECCC" cx="41.771" cy="169.573" r="18.882"/>
				<circle fill="#FFA538" cx="41.771" cy="169.573" r="14.704"/>
			</g>
		</g>
		<g>
			<rect y="169.482" fill="#2FB9C6" width="83.336" height="83.334"/>
			<g>
				<defs>
					<rect id="SVGID_57_" y="169.482" width="83.336" height="83.334"/>
				</defs>
				<clipPath id="SVGID_58_">
					<use xlink:href="#SVGID_57_"  overflow="visible"/>
				</clipPath>
				<g clip-path="url(#SVGID_58_)">
					<circle fill="#0D385C" cx="41.664" cy="169.482" r="41.652"/>
					<circle fill="#FFECCC" cx="41.664" cy="169.482" r="35.865"/>
					<circle fill="#0D385C" cx="41.664" cy="169.482" r="31.043"/>
					<circle fill="#FFECCC" cx="41.665" cy="169.482" r="26.729"/>
					<circle fill="#0D385C" cx="41.664" cy="169.482" r="21.93"/>
					<circle fill="#FFECCC" cx="41.665" cy="169.482" r="18.882"/>
					<circle fill="#0D385C" cx="41.665" cy="169.482" r="14.704"/>
				</g>
			</g>
		</g>
		<g>
			
				<rect x="6.879" y="216.277" transform="matrix(-0.7071 -0.7071 0.7071 -0.7071 -126.5115 409.5034)" fill="#FFECCC" width="29.353" height="29.353"/>
			
				<rect x="48.39" y="216.277" transform="matrix(-0.7071 -0.7071 0.7071 -0.7071 -55.6466 438.8567)" fill="#FFECCC" width="29.353" height="29.353"/>
		</g>
		<g>
			<g>
				<path fill="#2F9DC2" d="M123.569,64.539h19.64c0-10.847-8.792-19.64-19.64-19.64V64.539z"/>
				<path fill="#FFA538" d="M123.569,64.539h-19.64c0-10.847,8.792-19.64,19.64-19.64V64.539z"/>
			</g>
			<g>
				<path fill="#FFECCC" d="M123.569,64.538h-19.64c0,10.848,8.792,19.641,19.64,19.641V64.538z"/>
				<path fill="#85D0C3" d="M123.569,64.538h19.64c0,10.848-8.792,19.641-19.64,19.641V64.538z"/>
			</g>
		</g>
		<g>
			<polygon fill="#FFA538" points="84.313,210.632 156.484,168.964 83.708,168.964 83.708,252.3 156.484,252.3 			"/>
			<polygon fill="#FFECCC" points="156.484,252.3 167.04,252.3 167.04,241.65 113.313,210.632 167.04,179.613 167.04,168.964 
				156.484,168.964 84.313,210.632 			"/>
			<polygon fill="#0D385C" points="167.04,241.65 167.04,222.621 146.274,210.632 167.04,198.643 167.04,179.613 113.313,210.632 
							"/>
			<polygon fill="#2FB9C6" points="167.04,222.621 167.04,198.643 146.274,210.632 			"/>
		</g>
		<g>
			<polygon fill="#FFECCC" points="249.842,210.63 177.671,252.298 250.447,252.298 250.447,168.962 177.671,168.962 			"/>
			<polygon fill="#FFA538" points="177.671,168.962 167.115,168.962 167.115,179.611 220.842,210.63 167.115,241.648 
				167.115,252.298 177.671,252.298 249.842,210.63 			"/>
			<polygon fill="#85D0C3" points="167.115,179.611 167.115,198.641 187.881,210.63 167.115,222.619 167.115,241.648 
				220.842,210.63 			"/>
			<polygon fill="#2FB9C6" points="167.115,198.641 167.115,222.619 187.881,210.63 			"/>
		</g>
		<g>
			<g>
				<path fill="#FFECCC" d="M85.368,92.014c0,0,1.594,33.543,37.166,29.383L85.368,92.014z"/>
				<path fill="#2FB9C6" d="M85.368,92.014c0,0,33.004-6.189,37.164,29.383L85.368,92.014z"/>
			</g>
			<g>
				<path fill="#FFECCC" d="M161.886,92.014c0,0-1.594,33.543-37.166,29.383L161.886,92.014z"/>
				<path fill="#2FB9C6" d="M161.886,92.014c0,0-33.004-6.189-37.164,29.383L161.886,92.014z"/>
			</g>
			<g>
				<g>
					<path fill="#FFECCC" d="M85.368,125.23c0,0,1.594,33.543,37.166,29.383L85.368,125.23z"/>
					<path fill="#2FB9C6" d="M85.368,125.23c0,0,33.004-6.188,37.164,29.383L85.368,125.23z"/>
				</g>
				<g>
					<path fill="#FFECCC" d="M161.886,125.23c0,0-1.594,33.543-37.166,29.383L161.886,125.23z"/>
					<path fill="#2FB9C6" d="M161.886,125.23c0,0-33.004-6.188-37.164,29.383L161.886,125.23z"/>
				</g>
			</g>
			<rect x="122.905" y="85.917" fill="#2F9DC2" width="1.442" height="83.028"/>
		</g>
		<g>
			<g>
				<path fill="#FFECCC" d="M171.138,91.885c0,0,1.594,33.544,37.166,29.384L171.138,91.885z"/>
				<path fill="#0D385C" d="M171.138,91.885c0,0,33.004-6.188,37.164,29.384L171.138,91.885z"/>
			</g>
			<g>
				<path fill="#FFECCC" d="M247.656,91.885c0,0-1.594,33.544-37.166,29.384L247.656,91.885z"/>
				<path fill="#0D385C" d="M247.656,91.885c0,0-33.004-6.188-37.164,29.384L247.656,91.885z"/>
			</g>
			<g>
				<g>
					<path fill="#FFECCC" d="M171.138,125.103c0,0,1.594,33.544,37.166,29.384L171.138,125.103z"/>
					<path fill="#0D385C" d="M171.138,125.103c0,0,33.004-6.188,37.164,29.384L171.138,125.103z"/>
				</g>
				<g>
					<path fill="#FFECCC" d="M247.656,125.103c0,0-1.594,33.544-37.166,29.384L247.656,125.103z"/>
					<path fill="#0D385C" d="M247.656,125.103c0,0-33.004-6.188-37.164,29.384L247.656,125.103z"/>
				</g>
			</g>
			<rect x="208.675" y="85.789" fill="#2F9DC2" width="1.442" height="83.027"/>
		</g>
		<g>
			<g>
				<path fill="#FFA538" d="M211.918,87.896c15.861-1.801,28.186-15.259,28.186-31.601s-12.325-29.8-28.186-31.602V87.896z"/>
				<path fill="#2FB9C6" d="M207.666,24.694c-15.859,1.803-28.184,15.26-28.184,31.602s12.325,29.8,28.184,31.601V24.694z"/>
			</g>
			<circle fill="#0D385C" cx="209.793" cy="56.296" r="18.928"/>
		</g>
	</g>
</g>
<g id="BACKGROUND_1">
	<g>
		<rect x="-698.706" y="-600.809" fill="#0D385C" width="83.336" height="83.333"/>
		<rect x="-698.706" y="-517.476" fill="#FFA538" width="83.336" height="83.333"/>
		<rect x="-698.706" y="-434.144" fill="#2FB9C6" width="83.336" height="83.333"/>
		<polyline fill="#FFECCC" points="-615.37,-434.144 -615.37,-517.476 -698.706,-517.476 		"/>
		<rect x="-615.37" y="-517.476" fill="#FFE282" width="83.336" height="83.333"/>
		<rect x="-615.37" y="-434.144" fill="#FFECCC" width="83.336" height="83.333"/>
		<g>
			<rect x="-615.37" y="-350.811" fill="#FFE282" width="83.336" height="83.332"/>
			<pattern  id="SVGID_59_" xlink:href="#_x36__dpi_20_x25__5" patternTransform="matrix(1 0 0 1 -188 47.6973)">
			</pattern>
			<rect x="-615.37" y="-350.811" fill="url(#SVGID_59_)" width="83.336" height="83.332"/>
		</g>
		<rect x="-604.041" y="-422.703" fill="#0D385C" width="60.678" height="60.675"/>
		<rect x="-592.52" y="-411.182" fill="#2FB9C6" width="37.636" height="37.634"/>
		<rect x="-585.837" y="-404.5" fill="#FFECCC" width="24.271" height="24.27"/>
		<rect x="-448.698" y="-517.476" fill="#FFE282" width="83.336" height="83.333"/>
		<polyline fill="#2FB9C6" points="-615.37,-434.144 -615.37,-517.476 -532.034,-517.476 		"/>
		<rect x="-532.034" y="-600.809" fill="#2FB9C6" width="83.336" height="83.333"/>
		<rect x="-365.372" y="-600.813" fill="#FFE282" width="83.333" height="83.337"/>
		<rect x="-365.372" y="-517.479" fill="#2FB9C6" width="83.333" height="83.337"/>
		<rect x="-282.039" y="-517.479" fill="#FFE282" width="83.333" height="83.337"/>
		<pattern  id="SVGID_60_" xlink:href="#_x36__dpi_20_x25__3" patternTransform="matrix(1 0 0 1 -188 48)">
		</pattern>
		<rect x="-282.039" y="-517.479" fill="url(#SVGID_60_)" width="83.333" height="83.337"/>
		<rect x="-615.37" y="-600.809" fill="#FFE282" width="83.336" height="83.333"/>
		<polyline fill="#2F9DC2" points="-698.706,-600.809 -698.706,-517.476 -615.37,-517.476 		"/>
		<polyline fill="#85D0C3" points="-685.813,-587.916 -685.813,-530.369 -628.263,-530.369 		"/>
		<polyline fill="#FFECCC" points="-672.313,-574.417 -672.313,-543.868 -641.762,-543.868 		"/>
		<g>
			<rect x="-615.37" y="-600.809" fill="#FFA538" width="4.48" height="83.333"/>
			<rect x="-605.513" y="-600.809" fill="#FFA538" width="4.48" height="83.333"/>
			<rect x="-595.656" y="-600.809" fill="#FFA538" width="4.48" height="83.333"/>
			<rect x="-585.799" y="-600.809" fill="#FFA538" width="4.48" height="83.333"/>
			<rect x="-575.942" y="-600.809" fill="#FFA538" width="4.48" height="83.333"/>
			<rect x="-566.085" y="-600.809" fill="#FFA538" width="4.48" height="83.333"/>
			<rect x="-556.228" y="-600.809" fill="#FFA538" width="4.48" height="83.333"/>
			<rect x="-546.371" y="-600.809" fill="#FFA538" width="4.48" height="83.333"/>
			<rect x="-536.514" y="-600.809" fill="#FFA538" width="4.48" height="83.333"/>
		</g>
		<rect x="-365.373" y="-434.146" fill="#FFE282" width="83.333" height="83.336"/>
		<g>
			<rect x="-365.373" y="-355.291" fill="#2F9DC2" width="83.333" height="4.48"/>
			<rect x="-365.373" y="-365.146" fill="#2F9DC2" width="83.333" height="4.48"/>
			<rect x="-365.373" y="-375.003" fill="#2F9DC2" width="83.333" height="4.48"/>
			<rect x="-365.373" y="-384.861" fill="#2F9DC2" width="83.333" height="4.48"/>
			<rect x="-365.373" y="-394.718" fill="#2F9DC2" width="83.333" height="4.48"/>
			<rect x="-365.373" y="-404.574" fill="#2F9DC2" width="83.333" height="4.48"/>
			<rect x="-365.373" y="-414.431" fill="#2F9DC2" width="83.333" height="4.48"/>
			<rect x="-365.373" y="-424.288" fill="#2F9DC2" width="83.333" height="4.48"/>
			<rect x="-365.373" y="-434.146" fill="#2F9DC2" width="83.333" height="4.48"/>
		</g>
		<g>
			<rect x="-448.698" y="-600.811" fill="#FFECCC" width="83.337" height="83.333"/>
			<g>
				<path fill="#2F9DC2" d="M-404.375-519.667c19.814-2.25,35.211-19.062,35.211-39.478c0-20.415-15.396-37.227-35.211-39.477
					V-519.667z"/>
				<path fill="#2FB9C6" d="M-409.687-598.622c-19.813,2.251-35.208,19.062-35.208,39.477c0,20.416,15.396,37.227,35.208,39.478
					V-598.622z"/>
			</g>
		</g>
		<g>
			<defs>
				<rect id="SVGID_61_" x="-365.372" y="-600.813" width="83.333" height="83.337"/>
			</defs>
			<clipPath id="SVGID_62_">
				<use xlink:href="#SVGID_61_"  overflow="visible"/>
			</clipPath>
			<g clip-path="url(#SVGID_62_)">
				<circle fill="#FFA538" cx="-282.039" cy="-559.148" r="41.652"/>
				<circle fill="#FFECCC" cx="-282.039" cy="-559.148" r="35.865"/>
				<circle fill="#FFA538" cx="-282.039" cy="-559.148" r="31.043"/>
				<circle fill="#FFECCC" cx="-282.039" cy="-559.148" r="26.729"/>
				<circle fill="#FFA538" cx="-282.039" cy="-559.149" r="21.929"/>
				<circle fill="#FFECCC" cx="-282.039" cy="-559.148" r="18.882"/>
				<circle fill="#FFA538" cx="-282.039" cy="-559.148" r="14.704"/>
			</g>
		</g>
		<rect x="-282.039" y="-600.813" fill="#2FB9C6" width="83.333" height="83.337"/>
		<g>
			<defs>
				<rect id="SVGID_63_" x="-282.039" y="-600.813" width="83.333" height="83.337"/>
			</defs>
			<clipPath id="SVGID_64_">
				<use xlink:href="#SVGID_63_"  overflow="visible"/>
			</clipPath>
			<g clip-path="url(#SVGID_64_)">
				<circle fill="#0D385C" cx="-282.039" cy="-559.142" r="41.652"/>
				<circle fill="#FFECCC" cx="-282.039" cy="-559.142" r="35.865"/>
				<circle fill="#0D385C" cx="-282.039" cy="-559.142" r="31.043"/>
				<circle fill="#FFECCC" cx="-282.039" cy="-559.142" r="26.729"/>
				<circle fill="#0D385C" cx="-282.039" cy="-559.141" r="21.929"/>
				<circle fill="#FFECCC" cx="-282.039" cy="-559.142" r="18.882"/>
				<circle fill="#0D385C" cx="-282.039" cy="-559.142" r="14.704"/>
			</g>
		</g>
		<g>
			
				<rect x="-359.282" y="-594.729" transform="matrix(0.7071 -0.7071 0.7071 0.7071 309.2267 -413.566)" fill="#2FB9C6" width="29.353" height="29.353"/>
			
				<rect x="-359.282" y="-553.218" transform="matrix(0.7071 -0.7071 0.7071 0.7071 279.8739 -401.4077)" fill="#2FB9C6" width="29.353" height="29.353"/>
		</g>
		<g>
			
				<rect x="-234.292" y="-594.729" transform="matrix(0.7071 -0.7071 0.7071 0.7071 345.8353 -325.1853)" fill="#FFECCC" width="29.353" height="29.353"/>
			
				<rect x="-234.292" y="-553.218" transform="matrix(0.7071 -0.7071 0.7071 0.7071 316.4824 -313.0269)" fill="#FFECCC" width="29.353" height="29.353"/>
		</g>
		<rect x="-448.695" y="-350.811" fill="#FFE282" width="83.336" height="83.333"/>
		<g>
			<defs>
				<rect id="SVGID_65_" x="-448.695" y="-350.811" width="83.336" height="83.333"/>
			</defs>
			<clipPath id="SVGID_66_">
				<use xlink:href="#SVGID_65_"  overflow="visible"/>
			</clipPath>
			<g clip-path="url(#SVGID_66_)">
				<circle fill="#FFA538" cx="-407.031" cy="-350.811" r="41.652"/>
				<circle fill="#FFECCC" cx="-407.031" cy="-350.811" r="35.865"/>
				<circle fill="#FFA538" cx="-407.031" cy="-350.811" r="31.043"/>
				<circle fill="#FFECCC" cx="-407.03" cy="-350.811" r="26.729"/>
				<circle fill="#FFA538" cx="-407.031" cy="-350.811" r="21.93"/>
				<circle fill="#FFECCC" cx="-407.03" cy="-350.811" r="18.882"/>
				<circle fill="#FFA538" cx="-407.03" cy="-350.811" r="14.704"/>
			</g>
		</g>
		<rect x="-448.695" y="-434.144" fill="#2FB9C6" width="83.336" height="83.333"/>
		<g>
			<defs>
				<rect id="SVGID_67_" x="-448.695" y="-434.144" width="83.336" height="83.333"/>
			</defs>
			<clipPath id="SVGID_68_">
				<use xlink:href="#SVGID_67_"  overflow="visible"/>
			</clipPath>
			<g clip-path="url(#SVGID_68_)">
				<circle fill="#0D385C" cx="-407.023" cy="-350.811" r="41.652"/>
				<circle fill="#FFECCC" cx="-407.023" cy="-350.811" r="35.865"/>
				<circle fill="#0D385C" cx="-407.023" cy="-350.811" r="31.043"/>
				<circle fill="#FFECCC" cx="-407.024" cy="-350.811" r="26.729"/>
				<circle fill="#0D385C" cx="-407.023" cy="-350.811" r="21.93"/>
				<circle fill="#FFECCC" cx="-407.024" cy="-350.811" r="18.882"/>
				<circle fill="#0D385C" cx="-407.024" cy="-350.811" r="14.704"/>
			</g>
		</g>
		<g>
			
				<rect x="-442.611" y="-302.921" transform="matrix(-0.7071 -0.7071 0.7071 -0.7071 -526.7101 -794.6578)" fill="#2FB9C6" width="29.353" height="29.354"/>
			
				<rect x="-401.1" y="-302.921" transform="matrix(-0.7071 -0.7071 0.7071 -0.7071 -455.8469 -765.3052)" fill="#2FB9C6" width="29.353" height="29.354"/>
		</g>
		<g>
			
				<rect x="-442.612" y="-427.91" transform="matrix(-0.7071 -0.7071 0.7071 -0.7071 -438.3307 -1008.0293)" fill="#FFECCC" width="29.353" height="29.353"/>
			
				<rect x="-401.1" y="-427.91" transform="matrix(-0.7071 -0.7071 0.7071 -0.7071 -367.4658 -978.6761)" fill="#FFECCC" width="29.353" height="29.353"/>
		</g>
		<g>
			<rect x="-282.04" y="-434.144" fill="#FFA538" width="83.337" height="83.333"/>
			<g>
				<defs>
					<rect id="SVGID_69_" x="-282.04" y="-434.144" width="83.337" height="83.333"/>
				</defs>
				<clipPath id="SVGID_70_">
					<use xlink:href="#SVGID_69_"  overflow="visible"/>
				</clipPath>
				<circle clip-path="url(#SVGID_70_)" fill="#0D385C" cx="-198.704" cy="-354.289" r="59.997"/>
				<circle clip-path="url(#SVGID_70_)" fill="#85D0C3" cx="-198.704" cy="-354.289" r="46.498"/>
				<circle clip-path="url(#SVGID_70_)" fill="#FFECCC" cx="-282.04" cy="-434.142" r="46.498"/>
			</g>
		</g>
		<g>
			<rect x="-532.034" y="-517.476" fill="#FFA538" width="83.336" height="83.333"/>
			<g>
				<path fill="#2F9DC2" d="M-510.995-496.642h20.833c0-11.506-9.327-20.833-20.833-20.833V-496.642z"/>
				<path fill="#0D385C" d="M-510.995-496.642h-20.833c0-11.506,9.327-20.833,20.833-20.833V-496.642z"/>
			</g>
			<g>
				<path fill="#FFECCC" d="M-469.85-454.978h-20.833c0,11.506,9.327,20.833,20.833,20.833V-454.978z"/>
				<path fill="#85D0C3" d="M-469.85-454.978h20.833c0,11.506-9.327,20.833-20.833,20.833V-454.978z"/>
			</g>
			<g>
				<path fill="#2F9DC2" d="M-469.849-496.642h20.833c0-11.506-9.327-20.833-20.833-20.833V-496.642z"/>
				<path fill="#0D385C" d="M-469.849-496.642h-20.833c0-11.506,9.327-20.833,20.833-20.833V-496.642z"/>
			</g>
			<g>
				<path fill="#FFECCC" d="M-510.995-454.978h-20.833c0,11.506,9.327,20.833,20.833,20.833V-454.978z"/>
				<path fill="#85D0C3" d="M-510.995-454.978h20.833c0,11.506-9.327,20.833-20.833,20.833V-454.978z"/>
			</g>
			<g>
				<path fill="#2F9DC2" d="M-510.995-454.977h20.833c0-11.506-9.327-20.833-20.833-20.833V-454.977z"/>
				<path fill="#0D385C" d="M-510.995-454.977h-20.833c0-11.506,9.327-20.833,20.833-20.833V-454.977z"/>
			</g>
			<g>
				<path fill="#FFECCC" d="M-469.85-496.643h-20.833c0,11.506,9.327,20.833,20.833,20.833V-496.643z"/>
				<path fill="#85D0C3" d="M-469.85-496.643h20.833c0,11.506-9.327,20.833-20.833,20.833V-496.643z"/>
			</g>
			<g>
				<path fill="#2F9DC2" d="M-469.849-454.977h20.833c0-11.506-9.327-20.833-20.833-20.833V-454.977z"/>
				<path fill="#0D385C" d="M-469.849-454.977h-20.833c0-11.506,9.327-20.833,20.833-20.833V-454.977z"/>
			</g>
			<g>
				<path fill="#FFECCC" d="M-510.995-496.643h-20.833c0,11.506,9.327,20.833,20.833,20.833V-496.643z"/>
				<path fill="#85D0C3" d="M-510.995-496.643h20.833c0,11.506-9.327,20.833-20.833,20.833V-496.643z"/>
			</g>
		</g>
		<g>
			<defs>
				<rect id="SVGID_71_" x="-532.034" y="-600.809" width="83.336" height="83.333"/>
			</defs>
			<clipPath id="SVGID_72_">
				<use xlink:href="#SVGID_71_"  overflow="visible"/>
			</clipPath>
			<g clip-path="url(#SVGID_72_)">
				<g>
					<polygon fill="#0D385C" points="-490.367,-606.611 -504.27,-592.709 -476.464,-592.708 					"/>
					<polygon fill="#FFE282" points="-537.834,-559.145 -523.931,-545.24 -523.931,-573.048 					"/>
					<polygon fill="#0D385C" points="-490.364,-511.674 -476.462,-525.577 -504.267,-525.577 					"/>
					<polygon fill="#FFE282" points="-442.897,-559.142 -456.801,-573.046 -456.801,-545.238 					"/>
					<polygon fill="#FFECCC" points="-456.801,-545.238 -456.801,-573.046 -456.801,-592.708 -476.464,-592.708 -504.27,-592.709 
						-523.931,-592.709 -523.931,-573.048 -523.931,-545.24 -523.931,-525.577 -504.267,-525.577 -476.462,-525.577 
						-456.801,-525.577 					"/>
				</g>
				
					<rect x="-514.1" y="-582.875" transform="matrix(0.7071 0.7071 -0.7071 0.7071 -539.0144 182.971)" fill="#FFA538" width="47.468" height="47.466"/>
				<rect x="-510.441" y="-579.218" fill="#85D0C3" width="40.15" height="40.151"/>
			</g>
		</g>
		<g>
			<defs>
				<rect id="SVGID_73_" x="-448.698" y="-517.476" width="83.336" height="83.333"/>
			</defs>
			<clipPath id="SVGID_74_">
				<use xlink:href="#SVGID_73_"  overflow="visible"/>
			</clipPath>
			<rect x="-404.567" y="-548.724" clip-path="url(#SVGID_74_)" fill="#FFA538" width="83.336" height="83.333"/>
			<rect x="-487.913" y="-465.392" clip-path="url(#SVGID_74_)" fill="#FFECCC" width="83.336" height="83.333"/>
		</g>
		<rect x="-422.274" y="-491.054" fill="#0D385C" width="30.489" height="30.488"/>
		<g>
			<defs>
				<rect id="SVGID_75_" x="-365.372" y="-517.479" width="83.333" height="83.337"/>
			</defs>
			<clipPath id="SVGID_76_">
				<use xlink:href="#SVGID_75_"  overflow="visible"/>
			</clipPath>
			<polygon clip-path="url(#SVGID_76_)" fill="#FFECCC" points="-399.629,-431.842 -323.814,-517.786 -248,-431.842 			"/>
			<polygon clip-path="url(#SVGID_76_)" fill="#0D385C" points="-399.629,-393.283 -323.814,-479.227 -248,-393.283 			"/>
		</g>
		<g>
			<rect x="-532.034" y="-434.144" fill="#0D385C" width="83.336" height="83.333"/>
			<g>
				<defs>
					<rect id="SVGID_77_" x="-532.034" y="-434.144" width="83.336" height="83.333"/>
				</defs>
				<clipPath id="SVGID_78_">
					<use xlink:href="#SVGID_77_"  overflow="visible"/>
				</clipPath>
				<circle clip-path="url(#SVGID_78_)" fill="#FFE282" cx="-448.696" cy="-345.221" r="62.501"/>
			</g>
			<g>
				<path fill="#FFECCC" d="M-456.901-359.654c0,0-66.236,5.355-67.068-65.513L-456.901-359.654z"/>
				<path fill="#FFA538" d="M-456.901-359.654c0,0,3.799-66.34-67.068-65.509L-456.901-359.654z"/>
			</g>
		</g>
		<g>
			<defs>
				<rect id="SVGID_79_" x="-698.706" y="-434.144" width="83.336" height="83.333"/>
			</defs>
			<clipPath id="SVGID_80_">
				<use xlink:href="#SVGID_79_"  overflow="visible"/>
			</clipPath>
			<g clip-path="url(#SVGID_80_)">
				<polygon fill="#0D385C" points="-707.43,-323.232 -657.038,-392.477 -606.646,-323.232 				"/>
				<polygon fill="#0D385C" points="-606.646,-461.723 -657.038,-392.477 -707.43,-461.723 				"/>
			</g>
		</g>
		
			<rect x="-670.263" y="-405.704" transform="matrix(0.7071 0.7071 -0.7071 0.7071 -469.9659 349.6415)" fill="#FFE282" width="26.452" height="26.451"/>
		<g>
			<polygon fill="#FFA538" points="-657.038,-350.205 -615.37,-278.034 -615.37,-350.811 -698.706,-350.811 -698.706,-278.034 			
				"/>
			<polygon fill="#FFECCC" points="-698.706,-278.034 -698.706,-267.479 -688.057,-267.479 -657.038,-321.205 -626.019,-267.479 
				-615.37,-267.479 -615.37,-278.034 -657.038,-350.205 			"/>
			<polygon fill="#0D385C" points="-688.057,-267.479 -669.027,-267.479 -657.038,-288.244 -645.048,-267.479 -626.019,-267.479 
				-657.038,-321.205 			"/>
			<polygon fill="#2FB9C6" points="-669.027,-267.479 -645.048,-267.479 -657.038,-288.244 			"/>
		</g>
		<g>
			<polygon fill="#2FB9C6" points="-657.038,-184.752 -698.706,-256.923 -698.706,-184.146 -615.37,-184.146 -615.37,-256.923 			
				"/>
			<polygon fill="#FFECCC" points="-615.37,-256.923 -615.37,-267.479 -626.019,-267.479 -657.038,-213.752 -688.057,-267.479 
				-698.706,-267.479 -698.706,-256.923 -657.038,-184.752 			"/>
			<polygon fill="#0D385C" points="-626.019,-267.479 -645.048,-267.479 -657.038,-246.713 -669.027,-267.479 -688.057,-267.479 
				-657.038,-213.752 			"/>
			<polygon fill="#2FB9C6" points="-645.048,-267.479 -669.027,-267.479 -657.038,-246.713 			"/>
		</g>
		<g>
			<rect x="-532.034" y="-350.809" fill="#FFA538" width="83.338" height="83.332"/>
			<g>
				<path fill="#FFECCC" d="M-528.624-344.715c0,0,1.594,33.543,37.166,29.383L-528.624-344.715z"/>
				<path fill="#0D385C" d="M-528.624-344.715c0,0,33.004-6.188,37.164,29.383L-528.624-344.715z"/>
			</g>
			<g>
				<path fill="#FFECCC" d="M-452.106-344.715c0,0-1.594,33.543-37.166,29.383L-452.106-344.715z"/>
				<path fill="#0D385C" d="M-452.106-344.715c0,0-33.004-6.188-37.164,29.383L-452.106-344.715z"/>
			</g>
			<g>
				<g>
					<path fill="#FFECCC" d="M-528.624-311.498c0,0,1.594,33.544,37.166,29.384L-528.624-311.498z"/>
					<path fill="#0D385C" d="M-528.624-311.498c0,0,33.004-6.188,37.164,29.384L-528.624-311.498z"/>
				</g>
				<g>
					<path fill="#FFECCC" d="M-452.106-311.498c0,0-1.594,33.544-37.166,29.384L-452.106-311.498z"/>
					<path fill="#0D385C" d="M-452.106-311.498c0,0-33.004-6.188-37.164,29.384L-452.106-311.498z"/>
				</g>
			</g>
			<rect x="-491.086" y="-350.811" fill="#0D385C" width="1.442" height="83.027"/>
		</g>
		<rect x="-365.375" y="-350.666" fill="#2FB9C6" width="83.336" height="83.332"/>
		<polyline fill="#FFA538" points="-282.04,-267.334 -282.04,-350.666 -365.375,-350.666 		"/>
		<rect x="-282.04" y="-350.666" fill="#FFECCC" width="83.336" height="83.332"/>
		<polyline fill="#FFE282" points="-282.04,-267.334 -282.04,-350.666 -198.704,-350.666 		"/>
		<rect x="-615.37" y="-267.479" fill="#FFA538" width="83.336" height="83.333"/>
		<rect x="-532.045" y="-267.479" fill="#2FB9C6" width="83.336" height="83.333"/>
		<circle fill="#FFE282" cx="-573.704" cy="-225.812" r="41.667"/>
		<pattern  id="SVGID_81_" xlink:href="#_x36__dpi_20_x25__3" patternTransform="matrix(1 0 0 1 -243.3379 105.998)">
		</pattern>
		<circle fill="url(#SVGID_81_)" cx="-573.704" cy="-225.812" r="41.667"/>
		<g>
			<path fill="#85D0C3" d="M-532.037-225.812L-532.037-225.812c0-23.013-18.655-41.667-41.667-41.667
				c-23.011,0-41.666,18.654-41.666,41.666v0.001H-532.037z"/>
		</g>
		<g>
			<defs>
				<rect id="SVGID_82_" x="-532.026" y="-267.477" width="83.336" height="83.332"/>
			</defs>
			<clipPath id="SVGID_83_">
				<use xlink:href="#SVGID_82_"  overflow="visible"/>
			</clipPath>
			<rect x="-487.895" y="-298.725" clip-path="url(#SVGID_83_)" fill="#FFE282" width="83.337" height="83.332"/>
			<rect x="-571.241" y="-215.393" clip-path="url(#SVGID_83_)" fill="#FFECCC" width="83.336" height="83.333"/>
		</g>
		<rect x="-505.602" y="-241.056" fill="#0D385C" width="30.489" height="30.488"/>
		<rect x="-448.709" y="-267.481" fill="#0D385C" width="83.333" height="83.336"/>
		<g>
			<defs>
				<rect id="SVGID_84_" x="-448.673" y="-267.481" width="83.333" height="83.336"/>
			</defs>
			<clipPath id="SVGID_85_">
				<use xlink:href="#SVGID_84_"  overflow="visible"/>
			</clipPath>
			<g clip-path="url(#SVGID_85_)">
				<polygon fill="#FFA538" points="-476.252,-276.205 -407.007,-225.813 -476.252,-175.422 				"/>
				<polygon fill="#FFA538" points="-337.762,-175.422 -407.007,-225.813 -337.762,-276.205 				"/>
			</g>
		</g>
		
			<rect x="-420.573" y="-239.039" transform="matrix(-0.7071 0.7071 -0.7071 -0.7071 -855.056 -97.438)" fill="#2FB9C6" width="26.452" height="26.451"/>
		<g>
			<defs>
				<rect id="SVGID_86_" x="-365.376" y="-267.479" width="83.338" height="83.333"/>
			</defs>
			<clipPath id="SVGID_87_">
				<use xlink:href="#SVGID_86_"  overflow="visible"/>
			</clipPath>
			<rect x="-365.376" y="-267.479" clip-path="url(#SVGID_87_)" fill="#0D385C" width="83.338" height="83.333"/>
			
				<rect x="-379.877" y="-281.979" transform="matrix(0.7071 0.7071 -0.7071 0.7071 -254.4856 162.7567)" clip-path="url(#SVGID_87_)" fill="#FFECCC" width="112.339" height="112.331"/>
			
				<rect x="-371.553" y="-273.655" transform="matrix(0.7071 0.7071 -0.7071 0.7071 -254.486 162.7565)" clip-path="url(#SVGID_87_)" fill="#0D385C" width="95.69" height="95.683"/>
			
				<rect x="-365.248" y="-267.351" transform="matrix(0.7071 0.7071 -0.7071 0.7071 -254.4893 162.7575)" clip-path="url(#SVGID_87_)" fill="#FFECCC" width="83.08" height="83.075"/>
			
				<rect x="-359.091" y="-261.195" transform="matrix(0.7071 0.7071 -0.7071 0.7071 -254.4825 162.7557)" clip-path="url(#SVGID_87_)" fill="#85D0C3" width="70.767" height="70.762"/>
			
				<rect x="-353.173" y="-255.276" transform="matrix(0.7071 0.7071 -0.7071 0.7071 -254.4907 162.7577)" clip-path="url(#SVGID_87_)" fill="#FFECCC" width="58.931" height="58.926"/>
			
				<rect x="-347.717" y="-249.822" transform="matrix(0.7071 0.7071 -0.7071 0.7071 -254.4812 162.7556)" clip-path="url(#SVGID_87_)" fill="#0D385C" width="48.018" height="48.014"/>
			
				<rect x="-342.843" y="-244.947" transform="matrix(0.7071 0.7071 -0.7071 0.7071 -254.4865 162.7567)" clip-path="url(#SVGID_87_)" fill="#FFECCC" width="38.271" height="38.267"/>
			
				<rect x="-338.155" y="-240.259" transform="matrix(0.7071 0.7071 -0.7071 0.7071 -254.4777 162.7553)" clip-path="url(#SVGID_87_)" fill="#85D0C3" width="28.893" height="28.89"/>
		</g>
		<rect x="-282.037" y="-267.481" fill="#FFE282" width="83.333" height="83.338"/>
		<g>
			<defs>
				<rect id="SVGID_88_" x="-282.037" y="-267.481" width="83.333" height="83.338"/>
			</defs>
			<clipPath id="SVGID_89_">
				<use xlink:href="#SVGID_88_"  overflow="visible"/>
			</clipPath>
			<g clip-path="url(#SVGID_89_)">
				<circle fill="#0D385C" cx="-198.704" cy="-225.815" r="41.652"/>
				<circle fill="#FFA538" cx="-198.704" cy="-225.815" r="35.865"/>
				<circle fill="#0D385C" cx="-198.704" cy="-225.815" r="31.043"/>
				<circle fill="#FFA538" cx="-198.704" cy="-225.816" r="26.729"/>
				<circle fill="#0D385C" cx="-198.704" cy="-225.816" r="21.929"/>
				<circle fill="#FFA538" cx="-198.704" cy="-225.816" r="18.882"/>
				<circle fill="#0D385C" cx="-198.704" cy="-225.816" r="14.704"/>
			</g>
		</g>
		<rect x="-282.039" y="-267.479" fill="#FFA538" width="29.458" height="83.333"/>
		<rect x="-698.706" y="-184.146" fill="#85D0C3" width="83.336" height="83.332"/>
		<g>
			<defs>
				<rect id="SVGID_90_" x="-698.706" y="-184.146" width="83.336" height="83.332"/>
			</defs>
			<clipPath id="SVGID_91_">
				<use xlink:href="#SVGID_90_"  overflow="visible"/>
			</clipPath>
			<g clip-path="url(#SVGID_91_)">
				<g>
					<polygon fill="#2FB9C6" points="-657.039,-189.949 -670.941,-176.047 -643.136,-176.046 					"/>
					<polygon fill="#FFECCC" points="-704.506,-142.482 -690.603,-128.578 -690.603,-156.387 					"/>
					<polygon fill="#2FB9C6" points="-657.036,-95.012 -643.134,-108.914 -670.939,-108.914 					"/>
					<polygon fill="#FFECCC" points="-609.569,-142.48 -623.473,-156.384 -623.473,-128.576 					"/>
					<polygon fill="#FFA538" points="-623.473,-128.576 -623.473,-156.384 -623.473,-176.046 -643.136,-176.046 -670.941,-176.047 
						-690.603,-176.047 -690.603,-156.387 -690.603,-128.578 -690.603,-108.914 -670.939,-108.914 -643.134,-108.914 
						-623.473,-108.914 					"/>
				</g>
				
					<rect x="-680.772" y="-166.213" transform="matrix(0.7071 0.7071 -0.7071 0.7071 -293.2069 422.8751)" fill="#0D385C" width="47.469" height="47.466"/>
				<rect x="-677.113" y="-162.556" fill="#FFE282" width="40.15" height="40.151"/>
				
					<rect x="-669.026" y="-154.468" transform="matrix(-0.7071 0.7071 -0.7071 -0.7071 -1222.3879 221.3584)" fill="#85D0C3" width="23.976" height="23.975"/>
			</g>
		</g>
		<g>
			<rect x="-615.37" y="-184.146" fill="#0D385C" width="83.336" height="83.333"/>
			<g>
				<path fill="#2F9DC2" d="M-594.331-163.312h20.833c0-11.506-9.327-20.833-20.833-20.833V-163.312z"/>
				<path fill="#FFA538" d="M-594.331-163.312h-20.833c0-11.506,9.327-20.833,20.833-20.833V-163.312z"/>
			</g>
			<g>
				<path fill="#FFECCC" d="M-553.186-121.648h-20.833c0,11.507,9.327,20.834,20.833,20.834V-121.648z"/>
				<path fill="#85D0C3" d="M-553.186-121.648h20.833c0,11.507-9.327,20.834-20.833,20.834V-121.648z"/>
			</g>
			<g>
				<path fill="#2F9DC2" d="M-553.186-163.312h20.833c0-11.506-9.327-20.833-20.833-20.833V-163.312z"/>
				<path fill="#FFA538" d="M-553.186-163.312h-20.833c0-11.506,9.327-20.833,20.833-20.833V-163.312z"/>
			</g>
			<g>
				<path fill="#FFECCC" d="M-594.332-121.648h-20.833c0,11.507,9.327,20.834,20.833,20.834V-121.648z"/>
				<path fill="#85D0C3" d="M-594.332-121.648h20.833c0,11.507-9.327,20.834-20.833,20.834V-121.648z"/>
			</g>
			<g>
				<path fill="#2F9DC2" d="M-594.331-121.646h20.833c0-11.506-9.327-20.833-20.833-20.833V-121.646z"/>
				<path fill="#FFA538" d="M-594.331-121.646h-20.833c0-11.506,9.327-20.833,20.833-20.833V-121.646z"/>
			</g>
			<g>
				<path fill="#FFECCC" d="M-553.186-163.313h-20.833c0,11.506,9.327,20.833,20.833,20.833V-163.313z"/>
				<path fill="#85D0C3" d="M-553.186-163.313h20.833c0,11.506-9.327,20.833-20.833,20.833V-163.313z"/>
			</g>
			<g>
				<path fill="#2F9DC2" d="M-553.186-121.646h20.833c0-11.506-9.327-20.833-20.833-20.833V-121.646z"/>
				<path fill="#FFA538" d="M-553.186-121.646h-20.833c0-11.506,9.327-20.833,20.833-20.833V-121.646z"/>
			</g>
			<g>
				<path fill="#FFECCC" d="M-594.332-163.313h-20.833c0,11.506,9.327,20.833,20.833,20.833V-163.313z"/>
				<path fill="#85D0C3" d="M-594.332-163.313h20.833c0,11.506-9.327,20.833-20.833,20.833V-163.313z"/>
			</g>
		</g>
		<rect x="-532.026" y="-184.146" fill="#FFE282" width="83.336" height="83.332"/>
		<g>
			<defs>
				<rect id="SVGID_92_" x="-532.026" y="-184.146" width="83.336" height="83.332"/>
			</defs>
			<clipPath id="SVGID_93_">
				<use xlink:href="#SVGID_92_"  overflow="visible"/>
			</clipPath>
			<g clip-path="url(#SVGID_93_)">
				
					<rect x="-531.807" y="-247.648" transform="matrix(0.7071 0.7071 -0.7071 0.7071 -280.8355 321.6961)" fill="#FFA538" width="6.073" height="138.94"/>
				
					<rect x="-522.36" y="-238.2" transform="matrix(0.7071 0.7071 -0.7071 0.7071 -271.4169 317.7973)" fill="#FFA538" width="6.073" height="138.94"/>
				
					<rect x="-512.914" y="-228.755" transform="matrix(0.7071 0.7071 -0.7071 0.7071 -261.9709 313.8844)" fill="#FFA538" width="6.073" height="138.94"/>
				
					<rect x="-503.467" y="-219.308" transform="matrix(0.7071 0.7071 -0.7071 0.7071 -252.5241 309.9712)" fill="#FFA538" width="6.073" height="138.94"/>
				
					<rect x="-494.02" y="-209.859" transform="matrix(0.7071 0.7071 -0.7071 0.7071 -243.1016 306.0728)" fill="#FFA538" width="6.074" height="138.939"/>
				
					<rect x="-484.573" y="-200.413" transform="matrix(0.7072 0.707 -0.707 0.7072 -233.5811 302.1176)" fill="#FFA538" width="6.072" height="138.939"/>
				
					<rect x="-475.127" y="-190.967" transform="matrix(0.7071 0.7071 -0.7071 0.7071 -224.1835 298.2326)" fill="#FFA538" width="6.073" height="138.94"/>
				
					<rect x="-465.68" y="-181.52" transform="matrix(0.707 0.7072 -0.7072 0.707 -214.783 294.348)" fill="#FFA538" width="6.073" height="138.939"/>
				
					<rect x="-456.233" y="-172.074" transform="matrix(0.7071 0.7071 -0.7071 0.7071 -205.268 290.3926)" fill="#FFA538" width="6.072" height="138.94"/>
			</g>
		</g>
		<g>
			<rect x="-448.673" y="-184.145" fill="#85D0C3" width="83.337" height="83.332"/>
			<g>
				<defs>
					<rect id="SVGID_94_" x="-448.673" y="-184.145" width="83.337" height="83.332"/>
				</defs>
				<clipPath id="SVGID_95_">
					<use xlink:href="#SVGID_94_"  overflow="visible"/>
				</clipPath>
				<circle clip-path="url(#SVGID_95_)" fill="#FFECCC" cx="-365.337" cy="-104.291" r="59.997"/>
				<circle clip-path="url(#SVGID_95_)" fill="#FFA538" cx="-365.337" cy="-104.291" r="46.498"/>
				<circle clip-path="url(#SVGID_95_)" fill="#0D385C" cx="-448.673" cy="-184.143" r="46.498"/>
			</g>
		</g>
		<g>
			<rect x="-365.337" y="-184.145" fill="#0D385C" width="83.337" height="83.332"/>
			<g>
				<defs>
					<rect id="SVGID_96_" x="-365.337" y="-184.145" width="83.337" height="83.332"/>
				</defs>
				<clipPath id="SVGID_97_">
					<use xlink:href="#SVGID_96_"  overflow="visible"/>
				</clipPath>
				<circle clip-path="url(#SVGID_97_)" fill="#85D0C3" cx="-365.336" cy="-104.291" r="59.997"/>
				<circle clip-path="url(#SVGID_97_)" fill="#FFE282" cx="-365.336" cy="-104.291" r="46.498"/>
				<circle clip-path="url(#SVGID_97_)" fill="#FFA538" cx="-282" cy="-184.143" r="46.498"/>
			</g>
		</g>
		<rect x="-282.036" y="-184.146" fill="#0D385C" width="83.332" height="83.336"/>
		<polyline fill="#2F9DC2" points="-198.704,-184.146 -282.036,-184.146 -282.036,-100.811 		"/>
		<polyline fill="#85D0C3" points="-211.596,-171.253 -269.143,-171.253 -269.143,-113.704 		"/>
		<polyline fill="#FFA538" points="-225.094,-157.754 -255.644,-157.754 -255.644,-127.203 		"/>
	</g>
</g>
<g id="DESIGNED_BY_FREEPIK">
	<g>
		<g id="XMLID_29_">
			<g id="XMLID_48_">
				<path id="XMLID_56_" fill="#FFFFFF" d="M421.398-135.344c-0.432,0.443-0.803,0.932-1.107,1.453l-0.465-0.242
					c-0.068-0.297-0.35-0.502-0.66-0.465c-0.33,0.039-0.566,0.338-0.529,0.67c0.039,0.33,0.34,0.566,0.67,0.527
					c0.066-0.006,0.127-0.025,0.184-0.051l0.451,0.234c-0.25,0.553-0.432,1.139-0.539,1.742l0.748,0.133
					c0.229-1.307,0.85-2.508,1.791-3.473L421.398-135.344z"/>
				<path id="XMLID_55_" fill="#FFFFFF" d="M426.886-137.646c-0.172,0-0.342,0.006-0.51,0.018l-0.074-0.627
					c0.188-0.148,0.297-0.389,0.266-0.645c-0.045-0.393-0.402-0.674-0.795-0.627c-0.393,0.045-0.674,0.402-0.627,0.795
					c0.029,0.254,0.189,0.461,0.404,0.564l0.072,0.623c-0.713,0.117-1.402,0.332-2.059,0.646l0.326,0.684
					c0.936-0.447,1.941-0.674,2.996-0.674c0.496,0,0.992,0.053,1.475,0.158l0.16-0.74
					C427.986-137.588,427.437-137.646,426.886-137.646z"/>
				<path id="XMLID_54_" fill="#FFFFFF" d="M433.488-135.1c0.332-0.039,0.566-0.34,0.525-0.672c-0.039-0.33-0.34-0.566-0.672-0.525
					c-0.309,0.039-0.535,0.305-0.529,0.609l-0.416,0.363c-0.418-0.43-0.891-0.813-1.408-1.141l-0.404,0.643
					c1.135,0.715,2.021,1.727,2.564,2.924l0.689-0.313c-0.25-0.553-0.566-1.07-0.941-1.545l0.402-0.35
					C433.359-135.094,433.423-135.09,433.488-135.1z"/>
				<path id="XMLID_53_" fill="#FFFFFF" d="M426.339-127.438c-0.387,0.023-0.775,0.035-1.158,0.035c-0.879,0-1.732-0.061-2.479-0.18
					c-0.391-0.063-0.846-0.154-1.27-0.293c1.047,1.861,3.068,3.125,5.389,3.125c2.855,0,5.262-1.916,5.949-4.502
					c-0.682,0.449-1.506,0.824-2.459,1.121C429.132-127.762,427.757-127.523,426.339-127.438z"/>
				<path id="XMLID_49_" fill="#FFFFFF" d="M426.886-136.129c-3.352,0-6.08,2.666-6.08,5.943c0,0.424,0.047,0.848,0.137,1.26
					c0.674,0.484,2.707,0.891,5.348,0.732c2.881-0.174,5.297-0.959,6.672-2.16c-0.004-0.193-0.02-0.389-0.045-0.58
					C432.539-133.896,429.945-136.129,426.886-136.129z M424.726-129.615c-1.02,0-1.85-0.83-1.85-1.85s0.83-1.85,1.85-1.85
					s1.85,0.83,1.85,1.85S425.746-129.615,424.726-129.615z M429.464-130.523c-0.75,0-1.361-0.609-1.361-1.359
					s0.611-1.361,1.361-1.361s1.359,0.611,1.359,1.361S430.214-130.523,429.464-130.523z"/>
			</g>
			<path id="XMLID_46_" fill="#FFFFFF" d="M442.89-134.262c-0.295-0.117-0.807-0.311-1.383-0.238
				c-0.551,0.068-0.844,0.34-0.844,1.006v0.867h2.229v1.717h-2.229v5.455h-1.932v-5.455h-1.34v-1.717h1.34v-0.889
				c0-1.68,0.895-2.783,2.568-2.783c0.643,0,1.156,0.121,1.59,0.309V-134.262z"/>
			<path id="XMLID_44_" fill="#FFFFFF" d="M447.591-130.932c-0.176-0.029-0.357-0.045-0.525-0.045c-0.895,0-1.51,0.547-1.51,1.613
				v3.908h-1.932v-7.172h1.873v0.783c0.451-0.672,1.139-0.977,2.02-0.977c0.414,0,0.848,0.129,1.096,0.338L447.591-130.932z"/>
			<path id="XMLID_41_" fill="#FFFFFF" d="M455.259-129.053c0,0.223-0.016,0.488-0.037,0.652h-5.084
				c0.207,1.035,0.932,1.486,1.842,1.486c0.623,0,1.295-0.252,1.814-0.688l1.133,1.242c-0.814,0.748-1.852,1.09-3.057,1.09
				c-2.199,0-3.725-1.496-3.725-3.754s1.48-3.797,3.627-3.797C453.837-132.82,455.251-131.287,455.259-129.053z M450.146-129.719
				h3.174c-0.178-0.918-0.732-1.436-1.561-1.436C450.849-131.154,450.316-130.607,450.146-129.719z"/>
			<path id="XMLID_38_" fill="#FFFFFF" d="M462.914-129.053c0,0.223-0.016,0.488-0.037,0.652h-5.086
				c0.207,1.035,0.934,1.486,1.844,1.486c0.621,0,1.295-0.252,1.813-0.688l1.133,1.242c-0.814,0.748-1.85,1.09-3.057,1.09
				c-2.199,0-3.723-1.496-3.723-3.754s1.48-3.797,3.627-3.797C461.492-132.82,462.906-131.287,462.914-129.053z M457.798-129.719
				h3.176c-0.178-0.918-0.734-1.436-1.563-1.436C458.501-131.154,457.968-130.607,457.798-129.719z"/>
			<path id="XMLID_35_" fill="#FFFFFF" d="M471.259-129.045c0,2.154-1.496,3.775-3.473,3.775c-0.961,0-1.643-0.379-2.109-0.934
				v3.709h-1.924v-10.133h1.887v0.791c0.467-0.584,1.154-0.984,2.139-0.984C469.763-132.82,471.259-131.199,471.259-129.045z
				 M465.582-129.045c0,1.133,0.748,1.977,1.844,1.977c1.139,0,1.85-0.881,1.85-1.977s-0.711-1.977-1.85-1.977
				C466.33-131.021,465.582-130.178,465.582-129.045z"/>
			<path id="XMLID_32_" fill="#FFFFFF" d="M474.363-134.975c0,0.697-0.541,1.23-1.236,1.23c-0.697,0-1.229-0.533-1.229-1.23
				c0-0.695,0.531-1.242,1.229-1.242C473.822-136.217,474.363-135.67,474.363-134.975z M474.103-125.455h-1.932v-7.172h1.932
				V-125.455z"/>
			<path id="XMLID_30_" fill="#FFFFFF" d="M477.326-130.074l2.703-2.553h2.367l-3.479,3.375l3.502,3.797h-2.377l-2.717-2.902v2.902
				h-1.932v-10.658h1.932V-130.074z"/>
		</g>
		<g>
			<path fill="#FFFFFF" d="M345.707-125.52v-1.055c-0.527,0.717-1.391,1.23-2.387,1.23c-1.846,0-3.15-1.406-3.15-3.707
				c0-2.256,1.289-3.721,3.15-3.721c0.951,0,1.816,0.469,2.387,1.246v-3.766h1.1v9.771H345.707z M345.707-127.439v-3.207
				c-0.395-0.615-1.244-1.143-2.125-1.143c-1.42,0-2.27,1.172-2.27,2.738c0,1.568,0.85,2.725,2.27,2.725
				C344.462-126.326,345.312-126.824,345.707-127.439z"/>
			<path fill="#FFFFFF" d="M348.226-129.064c0-2.051,1.465-3.707,3.486-3.707c2.139,0,3.398,1.67,3.398,3.795v0.277h-5.729
				c0.088,1.334,1.025,2.447,2.549,2.447c0.807,0,1.627-0.322,2.184-0.895l0.527,0.719c-0.703,0.703-1.656,1.084-2.813,1.084
				C349.734-125.344,348.226-126.854,348.226-129.064z M351.697-131.863c-1.508,0-2.256,1.275-2.314,2.359h4.645
				C354.011-130.559,353.308-131.863,351.697-131.863z"/>
			<path fill="#FFFFFF" d="M355.902-126.457l0.57-0.791c0.469,0.541,1.363,1.01,2.328,1.01c1.086,0,1.672-0.512,1.672-1.215
				c0-1.715-4.381-0.66-4.381-3.281c0-1.1,0.951-2.037,2.637-2.037c1.201,0,2.051,0.455,2.623,1.025l-0.514,0.762
				c-0.424-0.512-1.201-0.893-2.109-0.893c-0.967,0-1.566,0.482-1.566,1.113c0,1.553,4.379,0.527,4.379,3.281
				c0,1.186-0.951,2.139-2.783,2.139C357.601-125.344,356.619-125.695,355.902-126.457z"/>
			<path fill="#FFFFFF" d="M362.771-134.338c0-0.41,0.338-0.748,0.732-0.748c0.41,0,0.746,0.338,0.746,0.748
				s-0.336,0.732-0.746,0.732C363.109-133.605,362.771-133.928,362.771-134.338z M362.96-125.52v-7.076h1.1v7.076H362.96z"/>
			<path fill="#FFFFFF" d="M365.876-123.703l0.557-0.82c0.586,0.703,1.289,0.967,2.299,0.967c1.172,0,2.271-0.572,2.271-2.125v-1.01
				c-0.514,0.717-1.377,1.26-2.373,1.26c-1.846,0-3.15-1.377-3.15-3.662c0-2.271,1.289-3.678,3.15-3.678
				c0.951,0,1.801,0.469,2.373,1.246v-1.07h1.098v6.871c0,2.344-1.641,3.076-3.369,3.076
				C367.531-122.648,366.71-122.885,365.876-123.703z M371.003-127.557v-3.09c-0.381-0.615-1.23-1.143-2.109-1.143
				c-1.422,0-2.271,1.127-2.271,2.695c0,1.553,0.85,2.695,2.271,2.695C369.773-126.398,370.623-126.941,371.003-127.557z"/>
			<path fill="#FFFFFF" d="M378.707-125.52v-4.629c0-1.246-0.629-1.641-1.582-1.641c-0.863,0-1.684,0.527-2.094,1.098v5.172h-1.1
				v-7.076h1.1v1.025c0.498-0.586,1.465-1.201,2.52-1.201c1.479,0,2.256,0.748,2.256,2.285v4.967H378.707z"/>
			<path fill="#FFFFFF" d="M381.226-129.064c0-2.051,1.465-3.707,3.486-3.707c2.139,0,3.398,1.67,3.398,3.795v0.277h-5.727
				c0.088,1.334,1.025,2.447,2.549,2.447c0.805,0,1.625-0.322,2.182-0.895l0.527,0.719c-0.703,0.703-1.654,1.084-2.813,1.084
				C382.736-125.344,381.226-126.854,381.226-129.064z M384.699-131.863c-1.51,0-2.256,1.275-2.314,2.359h4.643
				C387.013-130.559,386.31-131.863,384.699-131.863z"/>
			<path fill="#FFFFFF" d="M394.644-125.52v-1.055c-0.527,0.717-1.391,1.23-2.389,1.23c-1.844,0-3.148-1.406-3.148-3.707
				c0-2.256,1.289-3.721,3.148-3.721c0.953,0,1.818,0.469,2.389,1.246v-3.766h1.098v9.771H394.644z M394.644-127.439v-3.207
				c-0.396-0.615-1.244-1.143-2.123-1.143c-1.422,0-2.271,1.172-2.271,2.738c0,1.568,0.85,2.725,2.271,2.725
				C393.4-126.326,394.248-126.824,394.644-127.439z"/>
			<path fill="#FFFFFF" d="M400.986-125.52v-9.771h1.1v3.766c0.57-0.777,1.42-1.246,2.387-1.246c1.846,0,3.15,1.465,3.15,3.721
				c0,2.301-1.305,3.707-3.15,3.707c-0.996,0-1.859-0.514-2.387-1.23v1.055H400.986z M404.195-126.326
				c1.436,0,2.285-1.156,2.285-2.725c0-1.566-0.85-2.738-2.285-2.738c-0.865,0-1.729,0.527-2.109,1.143v3.207
				C402.466-126.824,403.33-126.326,404.195-126.326z"/>
			<path fill="#FFFFFF" d="M408.822-123.748c0.162,0.074,0.426,0.117,0.602,0.117c0.482,0,0.805-0.16,1.055-0.746l0.469-1.07
				l-2.959-7.148h1.186l2.359,5.801l2.344-5.801h1.201l-3.545,8.512c-0.426,1.023-1.143,1.42-2.08,1.436
				c-0.234,0-0.602-0.045-0.807-0.104L408.822-123.748z"/>
		</g>
	</g>
	<g>
		<g id="XMLID_1_">
			<g id="XMLID_20_">
				<path id="XMLID_28_" fill="#FFFFFF" d="M-438.602-135.344c-0.432,0.443-0.803,0.932-1.107,1.453l-0.465-0.242
					c-0.068-0.297-0.35-0.502-0.66-0.465c-0.33,0.039-0.566,0.338-0.529,0.67c0.039,0.33,0.34,0.566,0.67,0.527
					c0.066-0.006,0.127-0.025,0.184-0.051l0.451,0.234c-0.25,0.553-0.432,1.139-0.539,1.742l0.748,0.133
					c0.229-1.307,0.85-2.508,1.791-3.473L-438.602-135.344z"/>
				<path id="XMLID_27_" fill="#FFFFFF" d="M-433.114-137.646c-0.172,0-0.342,0.006-0.51,0.018l-0.074-0.627
					c0.188-0.148,0.297-0.389,0.266-0.645c-0.045-0.393-0.402-0.674-0.795-0.627c-0.393,0.045-0.674,0.402-0.627,0.795
					c0.029,0.254,0.189,0.461,0.404,0.564l0.072,0.623c-0.713,0.117-1.402,0.332-2.059,0.646l0.326,0.684
					c0.936-0.447,1.941-0.674,2.996-0.674c0.496,0,0.992,0.053,1.475,0.158l0.16-0.74
					C-432.014-137.588-432.563-137.646-433.114-137.646z"/>
				<path id="XMLID_26_" fill="#FFFFFF" d="M-426.512-135.1c0.332-0.039,0.566-0.34,0.525-0.672c-0.039-0.33-0.34-0.566-0.672-0.525
					c-0.309,0.039-0.535,0.305-0.529,0.609l-0.416,0.363c-0.418-0.43-0.891-0.813-1.408-1.141l-0.404,0.643
					c1.135,0.715,2.021,1.727,2.564,2.924l0.689-0.313c-0.25-0.553-0.566-1.07-0.941-1.545l0.402-0.35
					C-426.641-135.094-426.577-135.09-426.512-135.1z"/>
				<path id="XMLID_25_" fill="#FFFFFF" d="M-433.661-127.438c-0.387,0.023-0.775,0.035-1.158,0.035
					c-0.879,0-1.732-0.061-2.479-0.18c-0.391-0.063-0.846-0.154-1.27-0.293c1.047,1.861,3.068,3.125,5.389,3.125
					c2.855,0,5.262-1.916,5.949-4.502c-0.682,0.449-1.506,0.824-2.459,1.121C-430.868-127.762-432.243-127.523-433.661-127.438z"/>
				<path id="XMLID_21_" fill="#FFFFFF" d="M-433.114-136.129c-3.352,0-6.08,2.666-6.08,5.943c0,0.424,0.047,0.848,0.137,1.26
					c0.674,0.484,2.707,0.891,5.348,0.732c2.881-0.174,5.297-0.959,6.672-2.16c-0.004-0.193-0.02-0.389-0.045-0.58
					C-427.461-133.896-430.055-136.129-433.114-136.129z M-435.274-129.615c-1.02,0-1.85-0.83-1.85-1.85s0.83-1.85,1.85-1.85
					s1.85,0.83,1.85,1.85S-434.254-129.615-435.274-129.615z M-430.536-130.523c-0.75,0-1.361-0.609-1.361-1.359
					s0.611-1.361,1.361-1.361s1.359,0.611,1.359,1.361S-429.786-130.523-430.536-130.523z"/>
			</g>
			<path id="XMLID_18_" fill="#FFFFFF" d="M-417.11-134.262c-0.295-0.117-0.807-0.311-1.383-0.238
				c-0.551,0.068-0.844,0.34-0.844,1.006v0.867h2.229v1.717h-2.229v5.455h-1.932v-5.455h-1.34v-1.717h1.34v-0.889
				c0-1.68,0.895-2.783,2.568-2.783c0.643,0,1.156,0.121,1.59,0.309V-134.262z"/>
			<path id="XMLID_16_" fill="#FFFFFF" d="M-412.409-130.932c-0.176-0.029-0.357-0.045-0.525-0.045c-0.895,0-1.51,0.547-1.51,1.613
				v3.908h-1.932v-7.172h1.873v0.783c0.451-0.672,1.139-0.977,2.02-0.977c0.414,0,0.848,0.129,1.096,0.338L-412.409-130.932z"/>
			<path id="XMLID_13_" fill="#FFFFFF" d="M-404.741-129.053c0,0.223-0.016,0.488-0.037,0.652h-5.084
				c0.207,1.035,0.932,1.486,1.842,1.486c0.623,0,1.295-0.252,1.814-0.688l1.133,1.242c-0.814,0.748-1.852,1.09-3.057,1.09
				c-2.199,0-3.725-1.496-3.725-3.754s1.48-3.797,3.627-3.797C-406.163-132.82-404.749-131.287-404.741-129.053z M-409.854-129.719
				h3.174c-0.178-0.918-0.732-1.436-1.561-1.436C-409.151-131.154-409.684-130.607-409.854-129.719z"/>
			<path id="XMLID_10_" fill="#FFFFFF" d="M-397.086-129.053c0,0.223-0.016,0.488-0.037,0.652h-5.086
				c0.207,1.035,0.934,1.486,1.844,1.486c0.621,0,1.295-0.252,1.813-0.688l1.133,1.242c-0.814,0.748-1.85,1.09-3.057,1.09
				c-2.199,0-3.723-1.496-3.723-3.754s1.48-3.797,3.627-3.797C-398.508-132.82-397.094-131.287-397.086-129.053z M-402.202-129.719
				h3.176c-0.178-0.918-0.734-1.436-1.563-1.436C-401.499-131.154-402.032-130.607-402.202-129.719z"/>
			<path id="XMLID_7_" fill="#FFFFFF" d="M-388.741-129.045c0,2.154-1.496,3.775-3.473,3.775c-0.961,0-1.643-0.379-2.109-0.934
				v3.709h-1.924v-10.133h1.887v0.791c0.467-0.584,1.154-0.984,2.139-0.984C-390.237-132.82-388.741-131.199-388.741-129.045z
				 M-394.418-129.045c0,1.133,0.748,1.977,1.844,1.977c1.139,0,1.85-0.881,1.85-1.977s-0.711-1.977-1.85-1.977
				C-393.67-131.021-394.418-130.178-394.418-129.045z"/>
			<path id="XMLID_4_" fill="#FFFFFF" d="M-385.637-134.975c0,0.697-0.541,1.23-1.236,1.23c-0.697,0-1.229-0.533-1.229-1.23
				c0-0.695,0.531-1.242,1.229-1.242C-386.178-136.217-385.637-135.67-385.637-134.975z M-385.897-125.455h-1.932v-7.172h1.932
				V-125.455z"/>
			<path id="XMLID_2_" fill="#FFFFFF" d="M-382.674-130.074l2.703-2.553h2.367l-3.479,3.375l3.502,3.797h-2.377l-2.717-2.902v2.902
				h-1.932v-10.658h1.932V-130.074z"/>
		</g>
		<g>
			<path fill="#FFFFFF" d="M-514.293-125.52v-1.055c-0.527,0.717-1.391,1.23-2.387,1.23c-1.846,0-3.15-1.406-3.15-3.707
				c0-2.256,1.289-3.721,3.15-3.721c0.951,0,1.816,0.469,2.387,1.246v-3.766h1.1v9.771H-514.293z M-514.293-127.439v-3.207
				c-0.395-0.615-1.244-1.143-2.125-1.143c-1.42,0-2.27,1.172-2.27,2.738c0,1.568,0.85,2.725,2.27,2.725
				C-515.538-126.326-514.688-126.824-514.293-127.439z"/>
			<path fill="#FFFFFF" d="M-511.774-129.064c0-2.051,1.465-3.707,3.486-3.707c2.139,0,3.398,1.67,3.398,3.795v0.277h-5.729
				c0.088,1.334,1.025,2.447,2.549,2.447c0.807,0,1.627-0.322,2.184-0.895l0.527,0.719c-0.703,0.703-1.656,1.084-2.813,1.084
				C-510.266-125.344-511.774-126.854-511.774-129.064z M-508.303-131.863c-1.508,0-2.256,1.275-2.314,2.359h4.645
				C-505.989-130.559-506.692-131.863-508.303-131.863z"/>
			<path fill="#FFFFFF" d="M-504.098-126.457l0.57-0.791c0.469,0.541,1.363,1.01,2.328,1.01c1.086,0,1.672-0.512,1.672-1.215
				c0-1.715-4.381-0.66-4.381-3.281c0-1.1,0.951-2.037,2.637-2.037c1.201,0,2.051,0.455,2.623,1.025l-0.514,0.762
				c-0.424-0.512-1.201-0.893-2.109-0.893c-0.967,0-1.566,0.482-1.566,1.113c0,1.553,4.379,0.527,4.379,3.281
				c0,1.186-0.951,2.139-2.783,2.139C-502.399-125.344-503.381-125.695-504.098-126.457z"/>
			<path fill="#FFFFFF" d="M-497.229-134.338c0-0.41,0.338-0.748,0.732-0.748c0.41,0,0.746,0.338,0.746,0.748
				s-0.336,0.732-0.746,0.732C-496.891-133.605-497.229-133.928-497.229-134.338z M-497.04-125.52v-7.076h1.1v7.076H-497.04z"/>
			<path fill="#FFFFFF" d="M-494.124-123.703l0.557-0.82c0.586,0.703,1.289,0.967,2.299,0.967c1.172,0,2.271-0.572,2.271-2.125
				v-1.01c-0.514,0.717-1.377,1.26-2.373,1.26c-1.846,0-3.15-1.377-3.15-3.662c0-2.271,1.289-3.678,3.15-3.678
				c0.951,0,1.801,0.469,2.373,1.246v-1.07h1.098v6.871c0,2.344-1.641,3.076-3.369,3.076
				C-492.469-122.648-493.29-122.885-494.124-123.703z M-488.997-127.557v-3.09c-0.381-0.615-1.23-1.143-2.109-1.143
				c-1.422,0-2.271,1.127-2.271,2.695c0,1.553,0.85,2.695,2.271,2.695C-490.227-126.398-489.377-126.941-488.997-127.557z"/>
			<path fill="#FFFFFF" d="M-481.293-125.52v-4.629c0-1.246-0.629-1.641-1.582-1.641c-0.863,0-1.684,0.527-2.094,1.098v5.172h-1.1
				v-7.076h1.1v1.025c0.498-0.586,1.465-1.201,2.52-1.201c1.479,0,2.256,0.748,2.256,2.285v4.967H-481.293z"/>
			<path fill="#FFFFFF" d="M-478.774-129.064c0-2.051,1.465-3.707,3.486-3.707c2.139,0,3.398,1.67,3.398,3.795v0.277h-5.727
				c0.088,1.334,1.025,2.447,2.549,2.447c0.805,0,1.625-0.322,2.182-0.895l0.527,0.719c-0.703,0.703-1.654,1.084-2.813,1.084
				C-477.264-125.344-478.774-126.854-478.774-129.064z M-475.301-131.863c-1.51,0-2.256,1.275-2.314,2.359h4.643
				C-472.987-130.559-473.69-131.863-475.301-131.863z"/>
			<path fill="#FFFFFF" d="M-465.356-125.52v-1.055c-0.527,0.717-1.391,1.23-2.389,1.23c-1.844,0-3.148-1.406-3.148-3.707
				c0-2.256,1.289-3.721,3.148-3.721c0.953,0,1.818,0.469,2.389,1.246v-3.766h1.098v9.771H-465.356z M-465.356-127.439v-3.207
				c-0.396-0.615-1.244-1.143-2.123-1.143c-1.422,0-2.271,1.172-2.271,2.738c0,1.568,0.85,2.725,2.271,2.725
				C-466.6-126.326-465.752-126.824-465.356-127.439z"/>
			<path fill="#FFFFFF" d="M-459.014-125.52v-9.771h1.1v3.766c0.57-0.777,1.42-1.246,2.387-1.246c1.846,0,3.15,1.465,3.15,3.721
				c0,2.301-1.305,3.707-3.15,3.707c-0.996,0-1.859-0.514-2.387-1.23v1.055H-459.014z M-455.805-126.326
				c1.436,0,2.285-1.156,2.285-2.725c0-1.566-0.85-2.738-2.285-2.738c-0.865,0-1.729,0.527-2.109,1.143v3.207
				C-457.534-126.824-456.67-126.326-455.805-126.326z"/>
			<path fill="#FFFFFF" d="M-451.178-123.748c0.162,0.074,0.426,0.117,0.602,0.117c0.482,0,0.805-0.16,1.055-0.746l0.469-1.07
				l-2.959-7.148h1.186l2.359,5.801l2.344-5.801h1.201l-3.545,8.512c-0.426,1.023-1.143,1.42-2.08,1.436
				c-0.234,0-0.602-0.045-0.807-0.104L-451.178-123.748z"/>
		</g>
	</g>
</g>
</svg>
